<svg width="83" height="20" viewBox="0 0 83 20" fill="none" xmlns="http://www.w3.org/2000/svg">
<path d="M1.42694 15V4.024H7.69894C8.27494 4.024 8.79227 4.136 9.25094 4.36C9.72027 4.584 10.0883 4.89867 10.3549 5.304C10.6216 5.70933 10.7549 6.184 10.7549 6.728C10.7549 7.16533 10.6749 7.55467 10.5149 7.896C10.3549 8.23733 10.1363 8.52 9.85894 8.744C9.59227 8.968 9.28827 9.13333 8.94694 9.24V9.304C9.35227 9.38933 9.7096 9.54933 10.0189 9.784C10.3389 10.0187 10.5896 10.3227 10.7709 10.696C10.9629 11.0587 11.0589 11.4907 11.0589 11.992C11.0589 12.6533 10.9043 13.208 10.5949 13.656C10.2963 14.104 9.89627 14.44 9.39494 14.664C8.8936 14.888 8.3336 15 7.71494 15H1.42694ZM3.81094 13.048H7.25094C7.6456 13.048 7.9656 12.936 8.21094 12.712C8.46694 12.488 8.59494 12.1413 8.59494 11.672C8.59494 11.3947 8.5416 11.1547 8.43494 10.952C8.32827 10.7493 8.16827 10.5947 7.95494 10.488C7.7416 10.3707 7.4696 10.312 7.13894 10.312H3.81094V13.048ZM3.81094 8.456H6.97894C7.26694 8.456 7.50694 8.40267 7.69894 8.296C7.9016 8.17867 8.05094 8.02933 8.14694 7.848C8.2536 7.656 8.30694 7.43733 8.30694 7.192C8.30694 6.776 8.1896 6.46133 7.95494 6.248C7.73094 6.03467 7.43227 5.928 7.05894 5.928H3.81094V8.456ZM15.5018 15.192C14.6485 15.192 13.9711 14.9573 13.4698 14.488C12.9685 14.0187 12.7178 13.2613 12.7178 12.216V6.584H14.9418V11.848C14.9418 12.1253 14.9738 12.36 15.0378 12.552C15.1018 12.7333 15.1925 12.8827 15.3098 13C15.4378 13.1173 15.5925 13.2027 15.7738 13.256C15.9551 13.3093 16.1578 13.336 16.3818 13.336C16.7125 13.336 17.0111 13.256 17.2778 13.096C17.5445 12.936 17.7525 12.7173 17.9018 12.44C18.0511 12.152 18.1258 11.832 18.1258 11.48V6.584H20.3498V15H18.5258L18.3658 13.848H18.2538C18.0511 14.1147 17.8111 14.3493 17.5338 14.552C17.2671 14.7547 16.9631 14.9093 16.6218 15.016C16.2805 15.1333 15.9071 15.192 15.5018 15.192ZM25.7992 15.192C25.2125 15.192 24.6845 15.128 24.2152 15C23.7459 14.872 23.3459 14.696 23.0152 14.472C22.6845 14.2373 22.4285 13.96 22.2472 13.64C22.0765 13.32 21.9912 12.9573 21.9912 12.552C21.9912 12.5093 21.9912 12.4667 21.9912 12.424C21.9912 12.3813 21.9965 12.3493 22.0072 12.328H24.1512C24.1512 12.3493 24.1512 12.3707 24.1512 12.392C24.1512 12.4133 24.1512 12.4347 24.1512 12.456C24.1619 12.7227 24.2472 12.9413 24.4072 13.112C24.5672 13.272 24.7752 13.3893 25.0312 13.464C25.2979 13.5387 25.5752 13.576 25.8632 13.576C26.1192 13.576 26.3645 13.5547 26.5992 13.512C26.8445 13.4587 27.0472 13.368 27.2072 13.24C27.3779 13.112 27.4632 12.9467 27.4632 12.744C27.4632 12.488 27.3565 12.2907 27.1432 12.152C26.9405 12.0133 26.6685 11.9013 26.3272 11.816C25.9965 11.7307 25.6339 11.6347 25.2392 11.528C24.8765 11.4427 24.5139 11.3467 24.1512 11.24C23.7885 11.1227 23.4579 10.9733 23.1592 10.792C22.8712 10.6107 22.6365 10.376 22.4552 10.088C22.2739 9.78933 22.1832 9.416 22.1832 8.968C22.1832 8.53067 22.2792 8.152 22.4712 7.832C22.6632 7.50133 22.9245 7.22933 23.2552 7.016C23.5965 6.80267 23.9912 6.648 24.4392 6.552C24.8979 6.44533 25.3885 6.392 25.9112 6.392C26.4019 6.392 26.8605 6.44533 27.2872 6.552C27.7139 6.648 28.0872 6.79733 28.4072 7C28.7272 7.192 28.9779 7.43733 29.1592 7.736C29.3405 8.024 29.4312 8.34933 29.4312 8.712C29.4312 8.78667 29.4312 8.856 29.4312 8.92C29.4312 8.984 29.4259 9.02667 29.4152 9.048H27.2872V8.92C27.2872 8.728 27.2285 8.568 27.1112 8.44C26.9939 8.30133 26.8232 8.19467 26.5992 8.12C26.3859 8.04533 26.1245 8.008 25.8152 8.008C25.6019 8.008 25.4045 8.024 25.2232 8.056C25.0525 8.088 24.9032 8.136 24.7752 8.2C24.6472 8.264 24.5459 8.344 24.4712 8.44C24.4072 8.52533 24.3752 8.632 24.3752 8.76C24.3752 8.94133 24.4499 9.09067 24.5992 9.208C24.7592 9.31467 24.9672 9.40533 25.2232 9.48C25.4792 9.55467 25.7619 9.63467 26.0712 9.72C26.4552 9.82667 26.8552 9.93333 27.2712 10.04C27.6979 10.136 28.0925 10.2693 28.4552 10.44C28.8179 10.6107 29.1112 10.856 29.3352 11.176C29.5592 11.4853 29.6712 11.9067 29.6712 12.44C29.6712 12.952 29.5699 13.384 29.3672 13.736C29.1752 14.088 28.9032 14.3707 28.5512 14.584C28.1992 14.7973 27.7885 14.952 27.3192 15.048C26.8499 15.144 26.3432 15.192 25.7992 15.192ZM34.9778 15.192C34.0818 15.192 33.3298 15.0373 32.7218 14.728C32.1138 14.408 31.6498 13.9227 31.3298 13.272C31.0205 12.6107 30.8658 11.784 30.8658 10.792C30.8658 9.77867 31.0205 8.952 31.3298 8.312C31.6498 7.66133 32.1138 7.176 32.7218 6.856C33.3405 6.536 34.0925 6.376 34.9778 6.376C35.5538 6.376 36.0711 6.44533 36.5298 6.584C36.9991 6.72267 37.4045 6.936 37.7458 7.224C38.0871 7.512 38.3431 7.86933 38.5138 8.296C38.6951 8.712 38.7858 9.208 38.7858 9.784H36.5618C36.5618 9.4 36.5031 9.08533 36.3858 8.84C36.2685 8.59467 36.0871 8.408 35.8418 8.28C35.6071 8.152 35.3085 8.088 34.9458 8.088C34.5191 8.088 34.1725 8.184 33.9058 8.376C33.6391 8.568 33.4418 8.85067 33.3138 9.224C33.1858 9.59733 33.1218 10.0613 33.1218 10.616V10.984C33.1218 11.528 33.1858 11.9867 33.3138 12.36C33.4525 12.7333 33.6605 13.016 33.9378 13.208C34.2151 13.3893 34.5778 13.48 35.0258 13.48C35.3885 13.48 35.6871 13.416 35.9218 13.288C36.1671 13.16 36.3538 12.968 36.4818 12.712C36.6098 12.456 36.6738 12.1467 36.6738 11.784H38.7858C38.7858 12.328 38.6951 12.8133 38.5138 13.24C38.3431 13.6667 38.0871 14.024 37.7458 14.312C37.4151 14.6 37.0151 14.8187 36.5458 14.968C36.0765 15.1173 35.5538 15.192 34.9778 15.192ZM42.6777 15.192C42.4004 15.192 42.1017 15.16 41.7817 15.096C41.4724 15.032 41.179 14.92 40.9017 14.76C40.6244 14.5893 40.395 14.3493 40.2137 14.04C40.043 13.72 39.9577 13.3147 39.9577 12.824C39.9577 12.2373 40.0857 11.752 40.3417 11.368C40.5977 10.984 40.9604 10.6853 41.4297 10.472C41.9097 10.248 42.4804 10.0933 43.1417 10.008C43.803 9.92267 44.5337 9.88 45.3337 9.88V9.256C45.3337 9.01067 45.291 8.79733 45.2057 8.616C45.131 8.43467 44.9924 8.29067 44.7897 8.184C44.5977 8.07733 44.3257 8.024 43.9737 8.024C43.6217 8.024 43.3337 8.06667 43.1097 8.152C42.8964 8.23733 42.7417 8.34933 42.6457 8.488C42.5604 8.616 42.5177 8.76 42.5177 8.92V9.112H40.3577C40.347 9.05867 40.3417 9.01067 40.3417 8.968C40.3417 8.91467 40.3417 8.85067 40.3417 8.776C40.3417 8.28533 40.491 7.864 40.7897 7.512C41.0884 7.14933 41.5097 6.872 42.0537 6.68C42.5977 6.488 43.2324 6.392 43.9577 6.392C44.7364 6.392 45.387 6.49333 45.9097 6.696C46.443 6.89867 46.8484 7.19733 47.1257 7.592C47.4137 7.98667 47.5577 8.48267 47.5577 9.08V12.904C47.5577 13.096 47.611 13.24 47.7177 13.336C47.835 13.4213 47.963 13.464 48.1017 13.464H48.6297V14.92C48.523 14.9733 48.3577 15.0267 48.1337 15.08C47.9097 15.144 47.6377 15.176 47.3177 15.176C47.0084 15.176 46.731 15.128 46.4857 15.032C46.251 14.9467 46.0537 14.824 45.8937 14.664C45.7337 14.4933 45.6217 14.2907 45.5577 14.056H45.4457C45.2644 14.28 45.0404 14.4773 44.7737 14.648C44.5177 14.8187 44.2137 14.952 43.8617 15.048C43.5204 15.144 43.1257 15.192 42.6777 15.192ZM43.4297 13.512C43.7284 13.512 43.995 13.4693 44.2297 13.384C44.4644 13.288 44.6617 13.1653 44.8217 13.016C44.9817 12.856 45.1044 12.664 45.1897 12.44C45.2857 12.216 45.3337 11.976 45.3337 11.72V11.256C44.7364 11.256 44.203 11.2987 43.7337 11.384C43.2644 11.4587 42.891 11.592 42.6137 11.784C42.347 11.976 42.2137 12.2427 42.2137 12.584C42.2137 12.776 42.2617 12.9413 42.3577 13.08C42.4537 13.2187 42.5924 13.3253 42.7737 13.4C42.955 13.4747 43.1737 13.512 43.4297 13.512ZM49.7349 15V6.584H51.5749L51.7509 7.896H51.8629C51.9696 7.61867 52.1083 7.368 52.2789 7.144C52.4496 6.90933 52.6629 6.72267 52.9189 6.584C53.1749 6.44533 53.4736 6.376 53.8149 6.376C53.9963 6.376 54.1616 6.39733 54.3109 6.44C54.4603 6.472 54.5723 6.504 54.6469 6.536V8.552H53.9589C53.6283 8.552 53.3349 8.6 53.0789 8.696C52.8336 8.78133 52.6256 8.92 52.4549 9.112C52.2843 9.304 52.1563 9.53867 52.0709 9.816C51.9963 10.0933 51.9589 10.4187 51.9589 10.792V15H49.7349Z" fill="#F1F5F9"/>
<path d="M81.1633 16.8367L77.4531 13.125C78.5656 11.6754 79.0849 9.85688 78.9059 8.03841C78.7268 6.21993 77.8628 4.53765 76.489 3.33282C75.1152 2.12799 73.3345 1.49084 71.5082 1.55061C69.6819 1.61038 67.9467 2.3626 66.6547 3.65467C65.3626 4.94675 64.6104 6.68193 64.5506 8.50822C64.4908 10.3345 65.128 12.1152 66.3328 13.489C67.5376 14.8628 69.2199 15.7268 71.0384 15.9059C72.8569 16.0849 74.6754 15.5656 76.125 14.4531L79.8383 18.1672C79.9255 18.2544 80.029 18.3236 80.143 18.3708C80.2569 18.418 80.379 18.4423 80.5024 18.4423C80.6257 18.4423 80.7478 18.418 80.8617 18.3708C80.9757 18.3236 81.0792 18.2544 81.1664 18.1672C81.2536 18.08 81.3228 17.9765 81.37 17.8625C81.4172 17.7486 81.4415 17.6265 81.4415 17.5031C81.4415 17.3798 81.4172 17.2577 81.37 17.1438C81.3228 17.0298 81.2536 16.9263 81.1664 16.8391L81.1633 16.8367ZM66.4375 8.75002C66.4375 7.6993 66.7491 6.67218 67.3328 5.79855C67.9166 4.92491 68.7463 4.244 69.717 3.84191C70.6877 3.43981 71.7559 3.33461 72.7864 3.53959C73.817 3.74458 74.7636 4.25054 75.5065 4.99351C76.2495 5.73648 76.7555 6.68307 76.9604 7.7136C77.1654 8.74412 77.0602 9.81229 76.6581 10.783C76.256 11.7538 75.5751 12.5835 74.7015 13.1672C73.8278 13.7509 72.8007 14.0625 71.75 14.0625C70.3415 14.0611 68.9911 13.5009 67.9951 12.5049C66.9991 11.5089 66.439 10.1585 66.4375 8.75002Z" fill="#F1F5F9"/>
</svg>
