<svg width="162" height="18" viewBox="0 0 162 18" fill="none" xmlns="http://www.w3.org/2000/svg">
<path d="M1.39844 4.24219C1.13802 4.16406 0.981771 3.99479 0.929688 3.73438C0.864583 3.55208 0.884115 3.35677 0.988281 3.14844C1.09245 2.92708 1.25521 2.80339 1.47656 2.77734C2.73958 2.58203 4.0026 2.47786 5.26562 2.46484C6.54167 2.4388 7.81771 2.41927 9.09375 2.40625C9.34115 2.40625 9.52995 2.48438 9.66016 2.64062C9.79036 2.79688 9.85547 2.97266 9.85547 3.16797C9.85547 3.36328 9.79036 3.54557 9.66016 3.71484C9.52995 3.87109 9.34115 3.94922 9.09375 3.94922C8.07812 3.97526 7.05599 3.98828 6.02734 3.98828C4.9987 3.98828 3.97005 4.04036 2.94141 4.14453C2.96745 4.66536 3 5.1862 3.03906 5.70703C3.07812 6.21484 3.11719 6.72917 3.15625 7.25C4.14583 7.19792 5.12891 7.13281 6.10547 7.05469C7.09505 6.97656 8.08464 6.96354 9.07422 7.01562C9.32161 7.02865 9.51042 7.11979 9.64062 7.28906C9.77083 7.45833 9.83594 7.64062 9.83594 7.83594C9.83594 8.03125 9.77083 8.20703 9.64062 8.36328C9.51042 8.51953 9.32161 8.59115 9.07422 8.57812C8.09766 8.52604 7.1276 8.53906 6.16406 8.61719C5.21354 8.69531 4.25 8.76042 3.27344 8.8125C3.35156 9.75 3.42318 10.6875 3.48828 11.625C3.56641 12.5495 3.61849 13.4805 3.64453 14.418C4.10026 14.3138 4.5625 14.2161 5.03125 14.125C5.5 14.0208 5.96875 13.9427 6.4375 13.8906C6.90625 13.8255 7.375 13.793 7.84375 13.793C8.3125 13.793 8.78125 13.832 9.25 13.9102C9.45833 13.9492 9.61458 14.0729 9.71875 14.2812C9.82292 14.4896 9.84896 14.6849 9.79688 14.8672C9.73177 15.0885 9.60807 15.2448 9.42578 15.3359C9.24349 15.4271 9.04167 15.4531 8.82031 15.4141C8.40365 15.3359 7.98047 15.3099 7.55078 15.3359C7.12109 15.362 6.69792 15.4076 6.28125 15.4727C5.79948 15.5508 5.31771 15.6419 4.83594 15.7461C4.36719 15.8503 3.89844 15.9609 3.42969 16.0781C3.20833 16.1302 3 16.0911 2.80469 15.9609C2.6224 15.9349 2.45964 15.8633 2.31641 15.7461C2.17318 15.6289 2.10156 15.4531 2.10156 15.2188C2.07552 14.112 2.02344 13.0182 1.94531 11.9375C1.88021 10.8568 1.80208 9.76953 1.71094 8.67578C1.56771 8.53255 1.48307 8.35677 1.45703 8.14844C1.44401 7.92708 1.5026 7.73828 1.63281 7.58203C1.52865 6.47526 1.45052 5.36198 1.39844 4.24219ZM12.2773 11.6641C11.9388 11.4167 11.6979 11.1107 11.5547 10.7461C11.4115 10.3685 11.4049 9.97135 11.5352 9.55469C11.6654 9.17708 11.8672 8.83854 12.1406 8.53906C12.4141 8.23958 12.7266 7.9987 13.0781 7.81641C13.4688 7.60807 13.8854 7.44531 14.3281 7.32812C14.7708 7.21094 15.2201 7.14583 15.6758 7.13281C16.1315 7.11979 16.5807 7.16536 17.0234 7.26953C17.4792 7.36068 17.9089 7.51042 18.3125 7.71875C18.5339 7.83594 18.6576 7.99219 18.6836 8.1875C18.7096 8.38281 18.6706 8.5651 18.5664 8.73438C18.4753 8.90365 18.332 9.02734 18.1367 9.10547C17.9414 9.18359 17.7331 9.16406 17.5117 9.04688C17.1992 8.8776 16.8477 8.76693 16.457 8.71484C16.0664 8.66276 15.6693 8.66276 15.2656 8.71484C14.875 8.75391 14.5039 8.85156 14.1523 9.00781C13.8008 9.16406 13.5078 9.36589 13.2734 9.61328C13.2083 9.67839 13.1628 9.72396 13.1367 9.75C13.1237 9.77604 13.0977 9.83464 13.0586 9.92578L13.0195 10.1406C13.0586 10.2578 13.0911 10.3294 13.1172 10.3555C13.3776 10.5247 13.6445 10.6354 13.918 10.6875C14.2044 10.7266 14.4909 10.7526 14.7773 10.7656C15.181 10.7917 15.5911 10.8177 16.0078 10.8438C16.4375 10.8568 16.8477 10.9089 17.2383 11C17.6419 11.0911 18.013 11.2409 18.3516 11.4492C18.6901 11.6576 18.9766 11.9635 19.2109 12.3672C19.4714 12.8229 19.5885 13.2982 19.5625 13.793C19.5495 14.2747 19.3607 14.7109 18.9961 15.1016C18.6315 15.4922 18.2083 15.7656 17.7266 15.9219C17.2448 16.0651 16.7565 16.1693 16.2617 16.2344C15.819 16.2865 15.3568 16.2995 14.875 16.2734C14.4062 16.2474 13.9505 16.1693 13.5078 16.0391C13.0781 15.9219 12.6745 15.7396 12.2969 15.4922C11.9193 15.2318 11.6068 14.8932 11.3594 14.4766C11.2422 14.2682 11.2227 14.0729 11.3008 13.8906C11.3789 13.6953 11.4961 13.5521 11.6523 13.4609C11.8216 13.3568 12.0039 13.3177 12.1992 13.3438C12.4076 13.3698 12.5768 13.487 12.707 13.6953C12.8893 13.9948 13.1432 14.2227 13.4688 14.3789C13.7943 14.5352 14.1458 14.6458 14.5234 14.7109C14.9141 14.763 15.3047 14.776 15.6953 14.75C16.0859 14.7109 16.4375 14.6589 16.75 14.5938C16.9193 14.5547 17.0885 14.5026 17.2578 14.4375C17.4401 14.3594 17.5898 14.2682 17.707 14.1641C17.8372 14.0599 17.9284 13.9427 17.9805 13.8125C18.0326 13.6693 18.026 13.513 17.9609 13.3438C17.8307 13.0182 17.6094 12.7839 17.2969 12.6406C16.9974 12.4974 16.6784 12.4128 16.3398 12.3867C16.0013 12.3607 15.6562 12.3477 15.3047 12.3477C14.9531 12.3477 14.6016 12.3346 14.25 12.3086C13.8984 12.2695 13.5534 12.2044 13.2148 12.1133C12.8763 12.0221 12.5638 11.8724 12.2773 11.6641ZM26.9844 9.18359C27.2318 9.18359 27.4141 9.26172 27.5312 9.41797C27.6615 9.57422 27.7266 9.75 27.7266 9.94531C27.7266 10.1406 27.6615 10.3229 27.5312 10.4922C27.4141 10.6484 27.2318 10.7266 26.9844 10.7266C26.6719 10.7396 26.3594 10.7396 26.0469 10.7266C25.7474 10.7005 25.4479 10.6745 25.1484 10.6484C25.1615 11.6771 25.1419 12.7057 25.0898 13.7344C25.0508 14.763 24.9466 15.7852 24.7773 16.8008C24.7513 17.0221 24.6341 17.1849 24.4258 17.2891C24.2174 17.3932 24.0156 17.4128 23.8203 17.3477C23.599 17.2826 23.4427 17.1589 23.3516 16.9766C23.2734 16.8073 23.2539 16.612 23.293 16.3906C23.4492 15.401 23.5339 14.4115 23.5469 13.4219C23.5729 12.4323 23.5729 11.4362 23.5469 10.4336C23.0521 10.3555 22.5508 10.2773 22.043 10.1992C21.5352 10.1081 21.0339 10.0299 20.5391 9.96484C20.3177 9.9388 20.1615 9.82161 20.0703 9.61328C19.9661 9.39193 19.9401 9.1901 19.9922 9.00781C20.0573 8.78646 20.181 8.63672 20.3633 8.55859C20.5456 8.46745 20.7409 8.4349 20.9492 8.46094C21.3789 8.52604 21.8086 8.59766 22.2383 8.67578C22.668 8.74089 23.1042 8.80599 23.5469 8.87109C23.5339 8.80599 23.5273 8.70833 23.5273 8.57812C23.5273 7.40625 23.5208 6.2474 23.5078 5.10156C23.5078 3.95573 23.5664 2.79688 23.6836 1.625C23.7096 1.41667 23.7878 1.23438 23.918 1.07812C24.0612 0.921875 24.2435 0.84375 24.4648 0.84375C24.6602 0.84375 24.8424 0.921875 25.0117 1.07812C25.194 1.23438 25.2721 1.41667 25.2461 1.625C25.1159 2.875 25.0508 4.11849 25.0508 5.35547C25.0638 6.57943 25.0833 7.82292 25.1094 9.08594C25.4219 9.11198 25.7344 9.13802 26.0469 9.16406C26.3594 9.17708 26.6719 9.18359 26.9844 9.18359ZM29.0938 8.05078C29.1068 7.80339 29.1979 7.62109 29.3672 7.50391C29.5365 7.3737 29.7188 7.30859 29.9141 7.30859C30.1094 7.30859 30.2786 7.3737 30.4219 7.50391C30.5781 7.62109 30.6497 7.80339 30.6367 8.05078C30.6367 8.12891 30.6302 8.21354 30.6172 8.30469C30.6172 8.38281 30.6172 8.46094 30.6172 8.53906C31.0339 8.33073 31.4701 8.15495 31.9258 8.01172C32.3945 7.85547 32.8568 7.75781 33.3125 7.71875C33.7812 7.67969 34.2305 7.71875 34.6602 7.83594C35.1029 7.9401 35.5065 8.14844 35.8711 8.46094C36.0534 8.63021 36.1315 8.8125 36.1055 9.00781C36.0924 9.20312 36.0143 9.3724 35.8711 9.51562C35.7409 9.64583 35.5716 9.73047 35.3633 9.76953C35.1549 9.79557 34.9531 9.73047 34.7578 9.57422C34.6146 9.45703 34.4518 9.3724 34.2695 9.32031C34.1003 9.26823 33.9115 9.2487 33.7031 9.26172C33.5078 9.26172 33.306 9.28125 33.0977 9.32031C32.9023 9.35938 32.7135 9.40495 32.5312 9.45703C31.8411 9.67839 31.1966 9.97135 30.5977 10.3359C30.6237 10.974 30.6628 11.612 30.7148 12.25C30.7669 12.7839 30.8125 13.3372 30.8516 13.9102C30.8906 14.4701 31.0013 15.0039 31.1836 15.5117C31.2617 15.7461 31.2422 15.9414 31.125 16.0977C31.0208 16.2669 30.8711 16.3776 30.6758 16.4297C30.4935 16.4818 30.2982 16.4688 30.0898 16.3906C29.8945 16.3125 29.7578 16.1562 29.6797 15.9219C29.5755 15.6224 29.5039 15.3164 29.4648 15.0039C29.4258 14.6914 29.3867 14.3789 29.3477 14.0664C29.3216 13.7669 29.2891 13.4674 29.25 13.168C29.224 12.8555 29.1979 12.5495 29.1719 12.25C29.1068 11.5469 29.0612 10.8503 29.0352 10.1602C29.0221 9.45703 29.0417 8.75391 29.0938 8.05078ZM37.5898 8.42188C37.8372 8.08333 38.1302 7.78385 38.4688 7.52344C38.8203 7.26302 39.1914 7.0612 39.582 6.91797C39.9727 6.76172 40.3763 6.68359 40.793 6.68359C41.2096 6.67057 41.6263 6.7487 42.043 6.91797C42.4466 7.07422 42.8112 7.28906 43.1367 7.5625C43.4622 7.82292 43.7161 8.16146 43.8984 8.57812C44.0417 8.89062 44.1263 9.22917 44.1523 9.59375C44.1784 9.95833 44.0807 10.2904 43.8594 10.5898C43.6641 10.8633 43.4232 11.0716 43.1367 11.2148C42.8633 11.3581 42.5638 11.4622 42.2383 11.5273C41.9258 11.5924 41.6003 11.625 41.2617 11.625C40.9362 11.625 40.6237 11.6185 40.3242 11.6055C39.9857 11.5924 39.6471 11.5664 39.3086 11.5273C38.9831 11.4883 38.651 11.4492 38.3125 11.4102C38.4167 11.9961 38.625 12.5169 38.9375 12.9727C39.25 13.4284 39.6732 13.7734 40.207 14.0078C40.3503 14.0599 40.4609 14.099 40.5391 14.125C40.5781 14.138 40.6107 14.151 40.6367 14.1641C40.6758 14.1641 40.7148 14.1641 40.7539 14.1641C40.8581 14.1771 40.9427 14.1901 41.0078 14.2031C41.0859 14.2031 41.1576 14.1966 41.2227 14.1836C41.3138 14.1706 41.3724 14.1641 41.3984 14.1641C41.4375 14.151 41.4766 14.138 41.5156 14.125C41.6589 14.0859 41.7826 14.0404 41.8867 13.9883C42.0039 13.9362 42.1406 13.8516 42.2969 13.7344C42.375 13.6693 42.4792 13.5716 42.6094 13.4414C42.7396 13.3112 42.8503 13.194 42.9414 13.0898C43.0716 12.9076 43.2279 12.7839 43.4102 12.7188C43.6055 12.6536 43.8008 12.6797 43.9961 12.7969C44.1654 12.901 44.2826 13.0638 44.3477 13.2852C44.4258 13.4935 44.3997 13.6888 44.2695 13.8711C43.8919 14.3789 43.4427 14.8151 42.9219 15.1797C42.4141 15.5312 41.8281 15.7201 41.1641 15.7461C40.6302 15.7721 40.1159 15.681 39.6211 15.4727C39.1263 15.2513 38.6901 14.9583 38.3125 14.5938C37.8438 14.138 37.4727 13.6107 37.1992 13.0117C36.9258 12.4128 36.776 11.8008 36.75 11.1758C36.6328 11.0846 36.5417 10.974 36.4766 10.8438C36.4245 10.7005 36.4049 10.5573 36.418 10.4141C36.444 10.2708 36.4961 10.1406 36.5742 10.0234C36.6523 9.89323 36.7695 9.80859 36.9258 9.76953C37.069 9.28776 37.2904 8.83854 37.5898 8.42188ZM42.2773 8.89062C42.1341 8.70833 41.9128 8.54557 41.6133 8.40234C41.3659 8.29818 41.0729 8.24609 40.7344 8.24609C40.4089 8.24609 40.1289 8.30469 39.8945 8.42188C39.5951 8.5651 39.3281 8.76693 39.0938 9.02734C38.8594 9.27474 38.6706 9.55469 38.5273 9.86719C38.8398 9.90625 39.1523 9.94531 39.4648 9.98438C39.7773 10.0234 40.0898 10.0495 40.4023 10.0625C40.5716 10.0625 40.7409 10.0625 40.9102 10.0625C41.0794 10.0625 41.2487 10.056 41.418 10.043C41.4701 10.043 41.5156 10.043 41.5547 10.043C41.6068 10.0299 41.6589 10.0234 41.7109 10.0234C41.8281 9.9974 41.9128 9.98438 41.9648 9.98438C42.0299 9.97135 42.0951 9.95182 42.1602 9.92578C42.2122 9.91276 42.2773 9.89323 42.3555 9.86719C42.4206 9.84115 42.4596 9.82161 42.4727 9.80859C42.4857 9.79557 42.5052 9.78255 42.5312 9.76953L42.5898 9.53516C42.5638 9.48307 42.5443 9.4375 42.5312 9.39844C42.5312 9.34635 42.5182 9.30078 42.4922 9.26172C42.4792 9.22266 42.4466 9.16406 42.3945 9.08594C42.3555 9.00781 42.3164 8.94271 42.2773 8.89062ZM46.9844 0.667969C47.2188 0.667969 47.401 0.746094 47.5312 0.902344C47.6615 1.05859 47.7396 1.24089 47.7656 1.44922C47.8958 2.6862 47.9674 3.92318 47.9805 5.16016C47.9935 6.39714 47.974 7.63411 47.9219 8.87109C47.8828 10.1081 47.8177 11.3451 47.7266 12.582C47.6354 13.819 47.5443 15.0495 47.4531 16.2734C47.4271 16.4948 47.3424 16.6771 47.1992 16.8203C47.069 16.9766 46.8932 17.0547 46.6719 17.0547C46.4766 17.0547 46.2943 16.9766 46.125 16.8203C45.9557 16.6771 45.8776 16.4948 45.8906 16.2734C45.9818 15.0495 46.0729 13.819 46.1641 12.582C46.2682 11.3451 46.3398 10.1081 46.3789 8.87109C46.431 7.63411 46.4505 6.39714 46.4375 5.16016C46.4245 3.92318 46.3529 2.6862 46.2227 1.44922C46.1966 1.24089 46.2682 1.05859 46.4375 0.902344C46.6068 0.746094 46.7891 0.667969 46.9844 0.667969ZM51.3789 15.4727C50.9362 15.2773 50.5846 15.0104 50.3242 14.6719C50.0768 14.3203 49.901 13.9362 49.7969 13.5195C49.7057 13.1029 49.6797 12.6732 49.7188 12.2305C49.7578 11.7747 49.849 11.3385 49.9922 10.9219C50.1094 10.5964 50.2396 10.2578 50.3828 9.90625C50.5391 9.55469 50.7214 9.22917 50.9297 8.92969C51.138 8.63021 51.3854 8.3763 51.6719 8.16797C51.9583 7.94661 52.2969 7.80339 52.6875 7.73828C53.0911 7.67318 53.4948 7.65365 53.8984 7.67969C54.3151 7.69271 54.7253 7.73177 55.1289 7.79688C55.3112 7.82292 55.487 7.86849 55.6562 7.93359C55.8255 7.98568 55.9948 8.04427 56.1641 8.10938C56.1771 7.91406 56.2617 7.7513 56.418 7.62109C56.5872 7.49089 56.763 7.42578 56.9453 7.42578C57.1667 7.42578 57.3424 7.50391 57.4727 7.66016C57.6159 7.80339 57.7005 7.97917 57.7266 8.1875C57.7917 8.78646 57.8177 9.38542 57.8047 9.98438C57.8047 10.5833 57.7852 11.1823 57.7461 11.7812C57.7201 12.3802 57.694 12.9792 57.668 13.5781C57.6549 14.1771 57.6615 14.776 57.6875 15.375C57.7005 15.6224 57.6224 15.8112 57.4531 15.9414C57.2969 16.0586 57.1211 16.1172 56.9258 16.1172C56.7305 16.1172 56.5482 16.0586 56.3789 15.9414C56.2227 15.8112 56.138 15.6224 56.125 15.375C55.3828 15.6875 54.5951 15.8698 53.7617 15.9219C52.9284 15.9609 52.1341 15.8112 51.3789 15.4727ZM51.5156 11.2344C51.4375 11.4688 51.3659 11.7357 51.3008 12.0352C51.2357 12.3346 51.2161 12.6211 51.2422 12.8945C51.2682 13.168 51.3529 13.4219 51.4961 13.6562C51.6393 13.8776 51.8737 14.0339 52.1992 14.125C52.8633 14.3333 53.5273 14.3919 54.1914 14.3008C54.8685 14.2096 55.5 13.9753 56.0859 13.5977C56.138 12.9596 56.1771 12.3411 56.2031 11.7422C56.2422 11.1432 56.2552 10.5378 56.2422 9.92578C56.0208 9.78255 55.793 9.65885 55.5586 9.55469C55.3372 9.4375 55.0898 9.35938 54.8164 9.32031C54.543 9.28125 54.25 9.25521 53.9375 9.24219C53.638 9.21615 53.3451 9.21615 53.0586 9.24219C53.0326 9.24219 52.9609 9.26172 52.8438 9.30078C52.7396 9.32682 52.681 9.34635 52.668 9.35938C52.5378 9.42448 52.4206 9.52865 52.3164 9.67188C52.1471 9.90625 51.9974 10.1602 51.8672 10.4336C51.737 10.694 51.6198 10.9609 51.5156 11.2344ZM60.4219 11.6641C60.0833 11.4167 59.8424 11.1107 59.6992 10.7461C59.556 10.3685 59.5495 9.97135 59.6797 9.55469C59.8099 9.17708 60.0117 8.83854 60.2852 8.53906C60.5586 8.23958 60.8711 7.9987 61.2227 7.81641C61.6133 7.60807 62.0299 7.44531 62.4727 7.32812C62.9154 7.21094 63.3646 7.14583 63.8203 7.13281C64.276 7.11979 64.7253 7.16536 65.168 7.26953C65.6237 7.36068 66.0534 7.51042 66.457 7.71875C66.6784 7.83594 66.8021 7.99219 66.8281 8.1875C66.8542 8.38281 66.8151 8.5651 66.7109 8.73438C66.6198 8.90365 66.4766 9.02734 66.2812 9.10547C66.0859 9.18359 65.8776 9.16406 65.6562 9.04688C65.3438 8.8776 64.9922 8.76693 64.6016 8.71484C64.2109 8.66276 63.8138 8.66276 63.4102 8.71484C63.0195 8.75391 62.6484 8.85156 62.2969 9.00781C61.9453 9.16406 61.6523 9.36589 61.418 9.61328C61.3529 9.67839 61.3073 9.72396 61.2812 9.75C61.2682 9.77604 61.2422 9.83464 61.2031 9.92578L61.1641 10.1406C61.2031 10.2578 61.2357 10.3294 61.2617 10.3555C61.5221 10.5247 61.7891 10.6354 62.0625 10.6875C62.349 10.7266 62.6354 10.7526 62.9219 10.7656C63.3255 10.7917 63.7357 10.8177 64.1523 10.8438C64.582 10.8568 64.9922 10.9089 65.3828 11C65.7865 11.0911 66.1576 11.2409 66.4961 11.4492C66.8346 11.6576 67.1211 11.9635 67.3555 12.3672C67.6159 12.8229 67.7331 13.2982 67.707 13.793C67.694 14.2747 67.5052 14.7109 67.1406 15.1016C66.776 15.4922 66.3529 15.7656 65.8711 15.9219C65.3893 16.0651 64.901 16.1693 64.4062 16.2344C63.9635 16.2865 63.5013 16.2995 63.0195 16.2734C62.5508 16.2474 62.0951 16.1693 61.6523 16.0391C61.2227 15.9219 60.819 15.7396 60.4414 15.4922C60.0638 15.2318 59.7513 14.8932 59.5039 14.4766C59.3867 14.2682 59.3672 14.0729 59.4453 13.8906C59.5234 13.6953 59.6406 13.5521 59.7969 13.4609C59.9661 13.3568 60.1484 13.3177 60.3438 13.3438C60.5521 13.3698 60.7214 13.487 60.8516 13.6953C61.0339 13.9948 61.2878 14.2227 61.6133 14.3789C61.9388 14.5352 62.2904 14.6458 62.668 14.7109C63.0586 14.763 63.4492 14.776 63.8398 14.75C64.2305 14.7109 64.582 14.6589 64.8945 14.5938C65.0638 14.5547 65.2331 14.5026 65.4023 14.4375C65.5846 14.3594 65.7344 14.2682 65.8516 14.1641C65.9818 14.0599 66.0729 13.9427 66.125 13.8125C66.1771 13.6693 66.1706 13.513 66.1055 13.3438C65.9753 13.0182 65.7539 12.7839 65.4414 12.6406C65.1419 12.4974 64.8229 12.4128 64.4844 12.3867C64.1458 12.3607 63.8008 12.3477 63.4492 12.3477C63.0977 12.3477 62.7461 12.3346 62.3945 12.3086C62.043 12.2695 61.6979 12.2044 61.3594 12.1133C61.0208 12.0221 60.7083 11.8724 60.4219 11.6641ZM77.4727 8.87109C77.9414 8.58464 78.4427 8.33724 78.9766 8.12891C79.5234 7.92057 80.0768 7.82292 80.6367 7.83594C80.5846 6.72917 80.5391 5.62891 80.5 4.53516C80.474 3.44141 80.4544 2.34115 80.4414 1.23438C80.4414 0.986979 80.5195 0.804688 80.6758 0.6875C80.832 0.557292 81.0078 0.492188 81.2031 0.492188C81.3984 0.492188 81.5742 0.557292 81.7305 0.6875C81.8997 0.804688 81.9844 0.986979 81.9844 1.23438C81.9974 2.52344 82.0299 3.81901 82.082 5.12109C82.1341 6.41016 82.1862 7.69922 82.2383 8.98828C82.2904 10.2773 82.3294 11.5729 82.3555 12.875C82.3815 14.1641 82.375 15.4531 82.3359 16.7422C82.3229 16.9896 82.2318 17.1784 82.0625 17.3086C81.8932 17.4388 81.7109 17.5039 81.5156 17.5039C81.3203 17.5039 81.1445 17.4388 80.9883 17.3086C80.832 17.1914 80.7604 17.0026 80.7734 16.7422C80.7734 16.651 80.7734 16.5599 80.7734 16.4688C80.7734 16.3776 80.7799 16.2865 80.793 16.1953C80.6628 16.1823 80.5326 16.1693 80.4023 16.1562C80.2852 16.1562 80.168 16.1562 80.0508 16.1562C79.8945 16.1562 79.7383 16.1562 79.582 16.1562C79.4258 16.1562 79.276 16.1497 79.1328 16.1367C78.7943 16.1107 78.4557 16.0781 78.1172 16.0391C77.7786 16 77.4466 15.9219 77.1211 15.8047C76.7956 15.6745 76.4896 15.5182 76.2031 15.3359C75.9167 15.1406 75.6823 14.8867 75.5 14.5742C75.2917 14.2487 75.1159 13.8971 74.9727 13.5195C74.8424 13.1419 74.7904 12.7513 74.8164 12.3477C74.8424 11.944 74.9336 11.5729 75.0898 11.2344C75.2461 10.8958 75.4414 10.5833 75.6758 10.2969C75.9232 10.0104 76.1966 9.75 76.4961 9.51562C76.8086 9.28125 77.1341 9.06641 77.4727 8.87109ZM80.8125 14.6523C80.8125 12.9076 80.7734 11.1562 80.6953 9.39844C80.2656 9.3724 79.8359 9.45052 79.4062 9.63281C78.9896 9.80208 78.6055 9.9974 78.2539 10.2188C78.0586 10.3359 77.8438 10.4727 77.6094 10.6289C77.388 10.7721 77.1797 10.9414 76.9844 11.1367C76.8021 11.319 76.6523 11.5208 76.5352 11.7422C76.418 11.9635 76.3594 12.2044 76.3594 12.4648C76.3724 12.6992 76.4245 12.9531 76.5156 13.2266C76.6068 13.487 76.7305 13.7018 76.8867 13.8711C77.043 14.0404 77.2188 14.1706 77.4141 14.2617C77.6094 14.3398 77.8177 14.4049 78.0391 14.457C78.2995 14.5091 78.5469 14.5417 78.7812 14.5547C79.0286 14.5677 79.2826 14.5807 79.543 14.5938C79.7513 14.5938 79.9596 14.6068 80.168 14.6328C80.3763 14.6458 80.5911 14.6523 80.8125 14.6523ZM89.1133 6.99609C89.5299 6.94401 89.9661 6.93099 90.4219 6.95703C90.8776 6.97005 91.3138 7.04818 91.7305 7.19141C92.1471 7.32161 92.5247 7.52344 92.8633 7.79688C93.2018 8.07031 93.4622 8.42839 93.6445 8.87109C93.7747 9.18359 93.8398 9.5026 93.8398 9.82812C93.8529 10.1406 93.8073 10.4466 93.7031 10.7461C93.612 11.0326 93.4688 11.3125 93.2734 11.5859C93.0911 11.8464 92.8763 12.0872 92.6289 12.3086C92.0951 12.7904 91.5091 13.2005 90.8711 13.5391C90.2331 13.8776 89.5625 14.138 88.8594 14.3203C88.5599 14.3984 88.2474 14.4701 87.9219 14.5352C87.6094 14.5872 87.2904 14.6133 86.9648 14.6133C86.6393 14.6133 86.3203 14.5807 86.0078 14.5156C85.6953 14.4375 85.4023 14.3138 85.1289 14.1445C84.9336 14.0273 84.8164 13.8711 84.7773 13.6758C84.6992 13.4544 84.6146 13.2461 84.5234 13.0508C84.4323 12.8555 84.3411 12.6536 84.25 12.4453C84.1719 12.237 84.1068 12.0286 84.0547 11.8203C84.0026 11.612 83.9766 11.3971 83.9766 11.1758C83.9766 10.7331 84.0677 10.3164 84.25 9.92578C84.4453 9.52214 84.7057 9.17057 85.0312 8.87109C85.5781 8.35026 86.2096 7.93359 86.9258 7.62109C87.6419 7.30859 88.3711 7.10026 89.1133 6.99609ZM91.3203 8.67578C90.9688 8.54557 90.5911 8.48047 90.1875 8.48047C89.7578 8.46745 89.3281 8.51302 88.8984 8.61719C88.4688 8.70833 88.0586 8.83854 87.668 9.00781C87.3034 9.15104 86.9258 9.35286 86.5352 9.61328C86.1576 9.86068 85.8776 10.1667 85.6953 10.5312C85.5911 10.7266 85.5391 10.9284 85.5391 11.1367C85.5521 11.332 85.5846 11.5339 85.6367 11.7422C85.7018 11.9375 85.7799 12.1393 85.8711 12.3477C85.9753 12.543 86.0664 12.7383 86.1445 12.9336C86.3529 12.9857 86.4831 13.0117 86.5352 13.0117C86.5612 13.0247 86.5938 13.0312 86.6328 13.0312C86.6719 13.0312 86.7044 13.0312 86.7305 13.0312C86.9909 13.0573 87.2253 13.0508 87.4336 13.0117C87.5768 13.0117 87.7591 12.9857 87.9805 12.9336C88.319 12.8685 88.6445 12.7839 88.957 12.6797C89.2695 12.5625 89.556 12.4388 89.8164 12.3086C90.1159 12.1654 90.4089 12.0091 90.6953 11.8398C90.9818 11.6706 91.2227 11.4948 91.418 11.3125C91.5482 11.1953 91.6719 11.0716 91.7891 10.9414C91.8542 10.8763 91.8997 10.8242 91.9258 10.7852C91.9909 10.694 92.043 10.6289 92.082 10.5898C92.1211 10.5378 92.1536 10.4792 92.1797 10.4141C92.2318 10.3229 92.2578 10.2513 92.2578 10.1992C92.2708 10.1732 92.2773 10.1406 92.2773 10.1016C92.2904 10.0625 92.3034 10.0299 92.3164 10.0039V9.78906C92.3034 9.73698 92.2969 9.69792 92.2969 9.67188C92.2969 9.64583 92.2904 9.61979 92.2773 9.59375C92.2383 9.5026 92.1992 9.4375 92.1602 9.39844C92.1341 9.34635 92.1016 9.29427 92.0625 9.24219C92.0755 9.25521 92.056 9.23568 92.0039 9.18359C91.9648 9.13151 91.9388 9.09896 91.9258 9.08594L91.7695 8.92969C91.7044 8.89062 91.6328 8.84505 91.5547 8.79297C91.4766 8.74089 91.3984 8.70182 91.3203 8.67578ZM102.492 15.7461C102.492 15.9935 102.408 16.1758 102.238 16.293C102.082 16.4232 101.906 16.4883 101.711 16.4883C101.516 16.4883 101.34 16.4232 101.184 16.293C101.027 16.1758 100.949 15.9935 100.949 15.7461C100.949 14.7305 101.066 13.7539 101.301 12.8164C101.535 11.8789 101.828 10.9479 102.18 10.0234C102.089 9.85417 102.062 9.66536 102.102 9.45703C102.18 9.18359 102.349 9.01432 102.609 8.94922C102.87 8.32422 103.137 7.70573 103.41 7.09375C103.697 6.46875 103.97 5.84375 104.23 5.21875C104.491 4.59375 104.732 3.96224 104.953 3.32422C105.174 2.6862 105.357 2.03516 105.5 1.37109C105.539 1.17578 105.617 1.00651 105.734 0.863281C105.865 0.720052 106.04 0.648438 106.262 0.648438C106.47 0.648438 106.659 0.726562 106.828 0.882812C106.997 1.02604 107.069 1.20833 107.043 1.42969C107.004 2.1849 107.017 2.88151 107.082 3.51953C107.147 4.14453 107.245 4.76953 107.375 5.39453C107.505 6.00651 107.648 6.625 107.805 7.25C107.974 7.86198 108.13 8.47396 108.273 9.08594C108.417 9.67188 108.547 10.2578 108.664 10.8438C108.781 11.4297 108.97 11.9961 109.23 12.543C109.361 12.8164 109.497 13.0833 109.641 13.3438C109.784 13.5911 109.94 13.8451 110.109 14.1055C110.266 14.3398 110.409 14.5872 110.539 14.8477C110.669 15.0951 110.76 15.3685 110.812 15.668C110.839 15.8763 110.806 16.0716 110.715 16.2539C110.637 16.4362 110.487 16.5599 110.266 16.625C110.083 16.6771 109.888 16.651 109.68 16.5469C109.471 16.4427 109.348 16.2865 109.309 16.0781C109.257 15.7786 109.152 15.5117 108.996 15.2773C108.853 15.043 108.703 14.8021 108.547 14.5547C108.365 14.2682 108.195 13.9818 108.039 13.6953C107.896 13.3958 107.766 13.0898 107.648 12.7773C107.518 12.4518 107.408 12.1263 107.316 11.8008C107.225 11.4622 107.141 11.1237 107.062 10.7852C106.477 10.7461 105.897 10.7201 105.324 10.707C104.764 10.681 104.198 10.6354 103.625 10.5703C103.312 11.4036 103.046 12.25 102.824 13.1094C102.616 13.9688 102.505 14.8477 102.492 15.7461ZM104.328 8.83203C104.302 8.87109 104.283 8.91667 104.27 8.96875C104.27 9.00781 104.257 9.04688 104.23 9.08594C104.647 9.125 105.057 9.15104 105.461 9.16406C105.865 9.16406 106.275 9.17708 106.691 9.20312C106.548 8.57812 106.392 7.95964 106.223 7.34766C106.066 6.72266 105.923 6.09115 105.793 5.45312C105.559 6.02604 105.318 6.59245 105.07 7.15234C104.823 7.69922 104.576 8.25911 104.328 8.83203ZM113.684 16.2539C113.501 16.319 113.299 16.2995 113.078 16.1953C112.87 16.0911 112.753 15.9349 112.727 15.7266C112.544 14.5807 112.427 13.4479 112.375 12.3281C112.336 11.1953 112.316 10.056 112.316 8.91016C112.316 8.71484 112.368 8.55859 112.473 8.44141C112.577 8.32422 112.701 8.24609 112.844 8.20703C112.987 8.16797 113.137 8.16146 113.293 8.1875C113.449 8.21354 113.579 8.27865 113.684 8.38281C113.983 8.13542 114.302 7.92057 114.641 7.73828C114.979 7.55599 115.318 7.4388 115.656 7.38672C116.008 7.32161 116.353 7.34115 116.691 7.44531C117.03 7.53646 117.349 7.73828 117.648 8.05078C117.896 8.3112 118.111 8.59115 118.293 8.89062C118.475 9.17708 118.638 9.48307 118.781 9.80859C118.977 9.3138 119.25 8.85807 119.602 8.44141C119.953 8.02474 120.402 7.74479 120.949 7.60156C121.353 7.4974 121.672 7.52344 121.906 7.67969C122.141 7.82292 122.362 8.05078 122.57 8.36328C122.792 8.6888 122.993 9.02083 123.176 9.35938C123.371 9.69792 123.553 10.043 123.723 10.3945C123.892 10.7461 124.055 11.0977 124.211 11.4492C124.367 11.8008 124.523 12.1458 124.68 12.4844C124.862 12.862 125.018 13.2396 125.148 13.6172C125.292 13.9818 125.383 14.3724 125.422 14.7891C125.448 15.0104 125.37 15.1992 125.188 15.3555C125.018 15.4987 124.836 15.5703 124.641 15.5703C124.419 15.5703 124.237 15.4987 124.094 15.3555C123.964 15.1992 123.885 15.0104 123.859 14.7891C123.833 14.4766 123.749 14.1771 123.605 13.8906C123.475 13.5911 123.345 13.2982 123.215 13.0117C123.072 12.7122 122.928 12.4062 122.785 12.0938C122.655 11.7812 122.518 11.4753 122.375 11.1758C122.232 10.8763 122.076 10.5768 121.906 10.2773C121.75 9.97786 121.581 9.6849 121.398 9.39844C121.372 9.35938 121.346 9.32031 121.32 9.28125C121.294 9.24219 121.268 9.20312 121.242 9.16406C120.982 9.30729 120.793 9.44401 120.676 9.57422C120.559 9.70443 120.448 9.88021 120.344 10.1016C120.253 10.2969 120.174 10.5052 120.109 10.7266C120.057 10.9349 120.012 11.1497 119.973 11.3711C119.895 11.7878 119.836 12.224 119.797 12.6797C119.771 13.0182 119.771 13.3438 119.797 13.6562C119.836 13.9688 119.823 14.2943 119.758 14.6328C119.719 14.8411 119.595 14.9974 119.387 15.1016C119.191 15.2057 118.996 15.2318 118.801 15.1797C118.618 15.1276 118.482 15.0365 118.391 14.9062C118.312 14.763 118.26 14.6003 118.234 14.418C118.182 14.0013 118.124 13.5716 118.059 13.1289C117.993 12.6862 117.909 12.25 117.805 11.8203C117.701 11.3776 117.564 10.9544 117.395 10.5508C117.238 10.1341 117.03 9.75 116.77 9.39844C116.587 9.16406 116.398 9.00781 116.203 8.92969C116.021 8.85156 115.793 8.88411 115.52 9.02734C115.22 9.18359 114.927 9.3724 114.641 9.59375C114.354 9.8151 114.1 10.0625 113.879 10.3359C113.892 11.1693 113.918 12.0026 113.957 12.8359C114.009 13.6562 114.1 14.4766 114.23 15.2969C114.257 15.5182 114.224 15.7201 114.133 15.9023C114.055 16.0716 113.905 16.1888 113.684 16.2539ZM128.02 15.4727C127.577 15.2773 127.225 15.0104 126.965 14.6719C126.717 14.3203 126.542 13.9362 126.438 13.5195C126.346 13.1029 126.32 12.6732 126.359 12.2305C126.398 11.7747 126.49 11.3385 126.633 10.9219C126.75 10.5964 126.88 10.2578 127.023 9.90625C127.18 9.55469 127.362 9.22917 127.57 8.92969C127.779 8.63021 128.026 8.3763 128.312 8.16797C128.599 7.94661 128.938 7.80339 129.328 7.73828C129.732 7.67318 130.135 7.65365 130.539 7.67969C130.956 7.69271 131.366 7.73177 131.77 7.79688C131.952 7.82292 132.128 7.86849 132.297 7.93359C132.466 7.98568 132.635 8.04427 132.805 8.10938C132.818 7.91406 132.902 7.7513 133.059 7.62109C133.228 7.49089 133.404 7.42578 133.586 7.42578C133.807 7.42578 133.983 7.50391 134.113 7.66016C134.257 7.80339 134.341 7.97917 134.367 8.1875C134.432 8.78646 134.458 9.38542 134.445 9.98438C134.445 10.5833 134.426 11.1823 134.387 11.7812C134.361 12.3802 134.335 12.9792 134.309 13.5781C134.296 14.1771 134.302 14.776 134.328 15.375C134.341 15.6224 134.263 15.8112 134.094 15.9414C133.938 16.0586 133.762 16.1172 133.566 16.1172C133.371 16.1172 133.189 16.0586 133.02 15.9414C132.863 15.8112 132.779 15.6224 132.766 15.375C132.023 15.6875 131.236 15.8698 130.402 15.9219C129.569 15.9609 128.775 15.8112 128.02 15.4727ZM128.156 11.2344C128.078 11.4688 128.007 11.7357 127.941 12.0352C127.876 12.3346 127.857 12.6211 127.883 12.8945C127.909 13.168 127.993 13.4219 128.137 13.6562C128.28 13.8776 128.514 14.0339 128.84 14.125C129.504 14.3333 130.168 14.3919 130.832 14.3008C131.509 14.2096 132.141 13.9753 132.727 13.5977C132.779 12.9596 132.818 12.3411 132.844 11.7422C132.883 11.1432 132.896 10.5378 132.883 9.92578C132.661 9.78255 132.434 9.65885 132.199 9.55469C131.978 9.4375 131.73 9.35938 131.457 9.32031C131.184 9.28125 130.891 9.25521 130.578 9.24219C130.279 9.21615 129.986 9.21615 129.699 9.24219C129.673 9.24219 129.602 9.26172 129.484 9.30078C129.38 9.32682 129.322 9.34635 129.309 9.35938C129.178 9.42448 129.061 9.52865 128.957 9.67188C128.788 9.90625 128.638 10.1602 128.508 10.4336C128.378 10.694 128.26 10.9609 128.156 11.2344ZM136.457 14.125C136.457 13.5651 136.496 12.9987 136.574 12.4258C136.665 11.7357 136.757 11.0521 136.848 10.375C136.939 9.6849 136.978 8.98828 136.965 8.28516C136.965 8.03776 137.043 7.84896 137.199 7.71875C137.355 7.58854 137.531 7.52344 137.727 7.52344C137.922 7.52344 138.104 7.58854 138.273 7.71875C138.443 7.84896 138.527 8.03776 138.527 8.28516C139.035 8.24609 139.517 8.22656 139.973 8.22656C140.493 8.23958 140.936 8.38932 141.301 8.67578C141.665 8.96224 141.939 9.34635 142.121 9.82812C142.277 10.2708 142.368 10.7266 142.395 11.1953C142.421 11.6641 142.44 12.1328 142.453 12.6016C142.466 13.2656 142.486 13.9297 142.512 14.5938C142.538 15.2448 142.551 15.9023 142.551 16.5664C142.551 16.8268 142.466 17.0156 142.297 17.1328C142.141 17.263 141.965 17.3281 141.77 17.3281C141.587 17.3281 141.411 17.263 141.242 17.1328C141.086 17.0156 141.008 16.8268 141.008 16.5664C141.008 15.9414 140.995 15.3294 140.969 14.7305C140.956 14.1315 140.936 13.5195 140.91 12.8945C140.884 12.556 140.871 12.2109 140.871 11.8594C140.884 11.4948 140.858 11.1628 140.793 10.8633C140.754 10.681 140.715 10.5247 140.676 10.3945C140.637 10.2513 140.565 10.1146 140.461 9.98438C140.435 9.93229 140.376 9.88672 140.285 9.84766C140.207 9.80859 140.135 9.78906 140.07 9.78906C139.875 9.78906 139.693 9.80208 139.523 9.82812C139.354 9.85417 139.178 9.89323 138.996 9.94531C138.918 9.97135 138.84 9.9974 138.762 10.0234C138.684 10.0495 138.612 10.082 138.547 10.1211C138.417 10.5898 138.319 11.0391 138.254 11.4688C138.202 11.8854 138.15 12.3086 138.098 12.7383C138.059 13.0508 138.033 13.3698 138.02 13.6953C138.02 14.0078 138.007 14.3203 137.98 14.6328C137.967 14.9453 137.928 15.2578 137.863 15.5703C137.811 15.8828 137.714 16.1823 137.57 16.4688C137.453 16.6901 137.297 16.8138 137.102 16.8398C136.906 16.8789 136.724 16.8464 136.555 16.7422C136.398 16.651 136.275 16.5078 136.184 16.3125C136.105 16.1172 136.118 15.9089 136.223 15.6875C136.34 15.4531 136.405 15.1992 136.418 14.9258C136.431 14.6523 136.444 14.3854 136.457 14.125ZM144.738 15.6094C144.556 15.5443 144.4 15.4206 144.27 15.2383C144.152 15.043 144.133 14.8477 144.211 14.6523C144.432 14.0404 144.582 13.4219 144.66 12.7969C144.738 12.1719 144.79 11.5339 144.816 10.8828C144.829 10.6875 144.836 10.4987 144.836 10.3164C144.836 10.1211 144.842 9.92578 144.855 9.73047C144.816 9.57422 144.829 9.42448 144.895 9.28125C144.921 8.90365 144.947 8.52604 144.973 8.14844C144.999 7.75781 145.038 7.3737 145.09 6.99609C145.155 6.42318 145.22 5.85677 145.285 5.29688C145.363 4.72396 145.415 4.14453 145.441 3.55859C145.467 3.02474 145.493 2.4974 145.52 1.97656C145.559 1.44271 145.695 0.934896 145.93 0.453125C146.047 0.231771 146.203 0.108073 146.398 0.0820312C146.594 0.0429688 146.776 0.0755208 146.945 0.179688C147.115 0.270833 147.238 0.414062 147.316 0.609375C147.408 0.804688 147.395 1.01302 147.277 1.23438C147.173 1.45573 147.102 1.68359 147.062 1.91797C147.023 2.15234 146.997 2.39323 146.984 2.64062C146.984 2.88802 146.984 3.13542 146.984 3.38281C146.984 3.63021 146.978 3.87109 146.965 4.10547C146.9 4.69141 146.835 5.27734 146.77 5.86328C146.704 6.4362 146.639 7.01562 146.574 7.60156C147.121 7.32812 147.727 7.17839 148.391 7.15234C148.911 7.13932 149.439 7.23047 149.973 7.42578C150.52 7.60807 150.962 7.90755 151.301 8.32422C151.496 8.57161 151.652 8.84505 151.77 9.14453C151.887 9.43099 151.978 9.73698 152.043 10.0625C152.121 10.375 152.173 10.694 152.199 11.0195C152.225 11.332 152.251 11.638 152.277 11.9375C152.316 12.5495 152.329 13.1615 152.316 13.7734C152.316 14.3724 152.303 14.9844 152.277 15.6094C152.277 15.8568 152.193 16.0391 152.023 16.1562C151.854 16.2865 151.672 16.3516 151.477 16.3516C151.281 16.3516 151.105 16.2865 150.949 16.1562C150.793 16.0391 150.721 15.8568 150.734 15.6094C150.747 15.0885 150.76 14.5677 150.773 14.0469C150.786 13.526 150.78 13.0052 150.754 12.4844C150.728 12.224 150.708 11.957 150.695 11.6836C150.682 11.4102 150.65 11.1367 150.598 10.8633C150.572 10.7331 150.546 10.6094 150.52 10.4922C150.507 10.362 150.48 10.2318 150.441 10.1016C150.428 9.9974 150.396 9.88672 150.344 9.76953C150.305 9.65234 150.279 9.58724 150.266 9.57422C150.24 9.53516 150.22 9.5026 150.207 9.47656C150.194 9.4375 150.174 9.39844 150.148 9.35938C150.031 9.22917 149.96 9.15755 149.934 9.14453C149.882 9.10547 149.836 9.07943 149.797 9.06641C149.758 9.04036 149.719 9.01432 149.68 8.98828C149.536 8.91016 149.374 8.84505 149.191 8.79297C149.009 8.74089 148.833 8.71484 148.664 8.71484C148.221 8.6888 147.805 8.76693 147.414 8.94922C147.036 9.13151 146.698 9.41146 146.398 9.78906C146.372 10.6875 146.327 11.5794 146.262 12.4648C146.197 13.3372 146.008 14.2031 145.695 15.0625C145.63 15.2578 145.507 15.4141 145.324 15.5312C145.155 15.6484 144.96 15.6745 144.738 15.6094ZM155.5 15.4727C155.057 15.2773 154.706 15.0104 154.445 14.6719C154.198 14.3203 154.022 13.9362 153.918 13.5195C153.827 13.1029 153.801 12.6732 153.84 12.2305C153.879 11.7747 153.97 11.3385 154.113 10.9219C154.23 10.5964 154.361 10.2578 154.504 9.90625C154.66 9.55469 154.842 9.22917 155.051 8.92969C155.259 8.63021 155.507 8.3763 155.793 8.16797C156.079 7.94661 156.418 7.80339 156.809 7.73828C157.212 7.67318 157.616 7.65365 158.02 7.67969C158.436 7.69271 158.846 7.73177 159.25 7.79688C159.432 7.82292 159.608 7.86849 159.777 7.93359C159.947 7.98568 160.116 8.04427 160.285 8.10938C160.298 7.91406 160.383 7.7513 160.539 7.62109C160.708 7.49089 160.884 7.42578 161.066 7.42578C161.288 7.42578 161.464 7.50391 161.594 7.66016C161.737 7.80339 161.822 7.97917 161.848 8.1875C161.913 8.78646 161.939 9.38542 161.926 9.98438C161.926 10.5833 161.906 11.1823 161.867 11.7812C161.841 12.3802 161.815 12.9792 161.789 13.5781C161.776 14.1771 161.783 14.776 161.809 15.375C161.822 15.6224 161.743 15.8112 161.574 15.9414C161.418 16.0586 161.242 16.1172 161.047 16.1172C160.852 16.1172 160.669 16.0586 160.5 15.9414C160.344 15.8112 160.259 15.6224 160.246 15.375C159.504 15.6875 158.716 15.8698 157.883 15.9219C157.049 15.9609 156.255 15.8112 155.5 15.4727ZM155.637 11.2344C155.559 11.4688 155.487 11.7357 155.422 12.0352C155.357 12.3346 155.337 12.6211 155.363 12.8945C155.389 13.168 155.474 13.4219 155.617 13.6562C155.76 13.8776 155.995 14.0339 156.32 14.125C156.984 14.3333 157.648 14.3919 158.312 14.3008C158.99 14.2096 159.621 13.9753 160.207 13.5977C160.259 12.9596 160.298 12.3411 160.324 11.7422C160.363 11.1432 160.376 10.5378 160.363 9.92578C160.142 9.78255 159.914 9.65885 159.68 9.55469C159.458 9.4375 159.211 9.35938 158.938 9.32031C158.664 9.28125 158.371 9.25521 158.059 9.24219C157.759 9.21615 157.466 9.21615 157.18 9.24219C157.154 9.24219 157.082 9.26172 156.965 9.30078C156.861 9.32682 156.802 9.34635 156.789 9.35938C156.659 9.42448 156.542 9.52865 156.438 9.67188C156.268 9.90625 156.118 10.1602 155.988 10.4336C155.858 10.694 155.741 10.9609 155.637 11.2344ZM159.992 6C159.719 6.10417 159.432 6.13672 159.133 6.09766C158.846 6.04557 158.586 5.92839 158.352 5.74609C158.169 5.60286 157.993 5.44661 157.824 5.27734C157.655 5.09505 157.453 4.98438 157.219 4.94531C156.997 4.90625 156.783 4.94531 156.574 5.0625C156.379 5.17969 156.21 5.3099 156.066 5.45312C155.884 5.63542 155.689 5.71354 155.48 5.6875C155.285 5.66146 155.116 5.58333 154.973 5.45312C154.842 5.3099 154.758 5.14062 154.719 4.94531C154.693 4.73698 154.771 4.54167 154.953 4.35938C155.174 4.13802 155.422 3.94922 155.695 3.79297C155.969 3.63672 156.255 3.52604 156.555 3.46094C156.867 3.38281 157.173 3.36979 157.473 3.42188C157.785 3.46094 158.085 3.5651 158.371 3.73438C158.618 3.90365 158.833 4.08594 159.016 4.28125C159.081 4.34635 159.139 4.40495 159.191 4.45703C159.243 4.49609 159.302 4.52865 159.367 4.55469C159.445 4.56771 159.523 4.54818 159.602 4.49609C159.68 4.43099 159.758 4.35938 159.836 4.28125C159.914 4.1901 159.986 4.09896 160.051 4.00781C160.116 3.90365 160.168 3.82552 160.207 3.77344C160.35 3.60417 160.533 3.52604 160.754 3.53906C160.975 3.55208 161.158 3.63021 161.301 3.77344C161.47 3.92969 161.548 4.11198 161.535 4.32031C161.522 4.51562 161.444 4.69792 161.301 4.86719C161.118 5.08854 160.93 5.3099 160.734 5.53125C160.539 5.73958 160.292 5.89583 159.992 6Z" fill="#292524"/>
</svg>
