<svg width="256" height="128" viewBox="0 0 256 128" fill="none" xmlns="http://www.w3.org/2000/svg">
<rect x="0.5" y="0.5" width="255" height="127" rx="7.5" fill="white"/>
<rect x="0.5" y="0.5" width="255" height="127" rx="7.5" stroke="#D6D3D1"/>
<path opacity="0.4" d="M138 56C138 61.5228 133.523 66 128 66C122.477 66 118 61.5228 118 56C118 50.4772 122.477 46 128 46C133.523 46 138 50.4772 138 56Z" fill="#FEDF6F"/>
<path d="M138 56C138 61.5228 133.523 66 128 66C122.477 66 118 61.5228 118 56C118 50.4772 122.477 46 128 46C133.523 46 138 50.4772 138 56Z" stroke="#FEDF6F" stroke-width="3"/>
<path d="M128 36C127.245 36.6667 126.189 38.4 128 40M128 72C128.755 72.6666 129.811 74.4 128 76M143 41.0054C141.937 40.9396 139.851 41.4459 140.008 43.9969M114.992 67C115.057 68.063 114.551 70.1494 112 69.9916M114.005 41C113.94 42.064 114.446 44.1526 117 43.9946M140 67.0052C141.063 66.943 143.149 67.4216 142.992 69.8336M148 56C147.333 55.2454 145.6 54.189 144 56M112 55C111.333 55.7546 109.6 56.811 108 55" stroke="#FEDF6F" stroke-width="3" stroke-linecap="round"/>
<path d="M109.115 106V96.192H105.275V94.8H114.539V96.192H110.699V106H109.115ZM120.868 106V104.208L120.788 103.872V100.816C120.788 100.165 120.596 99.664 120.212 99.312C119.839 98.9493 119.274 98.768 118.516 98.768C118.015 98.768 117.524 98.8533 117.044 99.024C116.564 99.184 116.159 99.4027 115.828 99.68L115.188 98.528C115.626 98.176 116.148 97.9093 116.756 97.728C117.375 97.536 118.02 97.44 118.692 97.44C119.855 97.44 120.751 97.7227 121.38 98.288C122.01 98.8533 122.324 99.7173 122.324 100.88V106H120.868ZM118.084 106.096C117.455 106.096 116.9 105.989 116.42 105.776C115.951 105.563 115.588 105.269 115.332 104.896C115.076 104.512 114.948 104.08 114.948 103.6C114.948 103.141 115.055 102.725 115.268 102.352C115.492 101.979 115.85 101.68 116.34 101.456C116.842 101.232 117.514 101.12 118.356 101.12H121.044V102.224H118.42C117.652 102.224 117.135 102.352 116.868 102.608C116.602 102.864 116.468 103.173 116.468 103.536C116.468 103.952 116.634 104.288 116.964 104.544C117.295 104.789 117.754 104.912 118.34 104.912C118.916 104.912 119.418 104.784 119.844 104.528C120.282 104.272 120.596 103.899 120.788 103.408L121.092 104.464C120.89 104.965 120.532 105.365 120.02 105.664C119.508 105.952 118.863 106.096 118.084 106.096ZM125.167 106V97.52H126.639V99.824L126.495 99.248C126.73 98.6613 127.124 98.2133 127.679 97.904C128.234 97.5947 128.916 97.44 129.727 97.44V98.928C129.663 98.9173 129.599 98.912 129.535 98.912C129.482 98.912 129.428 98.912 129.375 98.912C128.554 98.912 127.903 99.1573 127.423 99.648C126.943 100.139 126.703 100.848 126.703 101.776V106H125.167ZM135.046 106.096C134.225 106.096 133.489 105.915 132.838 105.552C132.198 105.189 131.691 104.683 131.318 104.032C130.945 103.381 130.758 102.624 130.758 101.76C130.758 100.896 130.945 100.144 131.318 99.504C131.691 98.8533 132.198 98.3467 132.838 97.984C133.489 97.6213 134.225 97.44 135.046 97.44C135.761 97.44 136.406 97.6 136.982 97.92C137.558 98.24 138.017 98.72 138.358 99.36C138.71 100 138.886 100.8 138.886 101.76C138.886 102.72 138.715 103.52 138.374 104.16C138.043 104.8 137.59 105.285 137.014 105.616C136.438 105.936 135.782 106.096 135.046 106.096ZM135.174 104.752C135.707 104.752 136.187 104.629 136.614 104.384C137.051 104.139 137.393 103.792 137.638 103.344C137.894 102.885 138.022 102.357 138.022 101.76C138.022 101.152 137.894 100.629 137.638 100.192C137.393 99.744 137.051 99.3973 136.614 99.152C136.187 98.9067 135.707 98.784 135.174 98.784C134.63 98.784 134.145 98.9067 133.718 99.152C133.291 99.3973 132.95 99.744 132.694 100.192C132.438 100.629 132.31 101.152 132.31 101.76C132.31 102.357 132.438 102.885 132.694 103.344C132.95 103.792 133.291 104.139 133.718 104.384C134.145 104.629 134.63 104.752 135.174 104.752ZM138.07 106V103.712L138.166 101.744L138.006 99.776V94.128H139.542V106H138.07ZM146.224 106.096C145.318 106.096 144.518 105.909 143.824 105.536C143.142 105.163 142.608 104.651 142.224 104C141.851 103.349 141.664 102.603 141.664 101.76C141.664 100.917 141.846 100.171 142.208 99.52C142.582 98.8693 143.088 98.3627 143.728 98C144.379 97.6267 145.11 97.44 145.92 97.44C146.742 97.44 147.467 97.6213 148.096 97.984C148.726 98.3467 149.216 98.8587 149.568 99.52C149.931 100.171 150.112 100.933 150.112 101.808C150.112 101.872 150.107 101.947 150.096 102.032C150.096 102.117 150.091 102.197 150.08 102.272H142.864V101.168H149.28L148.656 101.552C148.667 101.008 148.555 100.523 148.32 100.096C148.086 99.6693 147.76 99.3387 147.344 99.104C146.939 98.8587 146.464 98.736 145.92 98.736C145.387 98.736 144.912 98.8587 144.496 99.104C144.08 99.3387 143.755 99.6747 143.52 100.112C143.286 100.539 143.168 101.029 143.168 101.584V101.84C143.168 102.405 143.296 102.912 143.552 103.36C143.819 103.797 144.187 104.139 144.656 104.384C145.126 104.629 145.664 104.752 146.272 104.752C146.774 104.752 147.227 104.667 147.632 104.496C148.048 104.325 148.411 104.069 148.72 103.728L149.568 104.72C149.184 105.168 148.704 105.509 148.128 105.744C147.563 105.979 146.928 106.096 146.224 106.096Z" fill="black" fill-opacity="0.8"/>
<path d="M20 30C25.5228 30 30 25.5228 30 20C30 14.4772 25.5228 10 20 10C14.4772 10 10 14.4772 10 20C10 25.5228 14.4772 30 20 30Z" stroke="#D6D3D1" stroke-width="1.5" stroke-linejoin="round"/>
</svg>
