<svg width="120" height="128" viewBox="0 0 120 128" fill="none" xmlns="http://www.w3.org/2000/svg">
<rect x="0.5" y="0.5" width="119" height="127" rx="7.5" fill="white"/>
<rect x="0.5" y="0.5" width="119" height="127" rx="7.5" stroke="#D6D3D1"/>
<path opacity="0.4" d="M76.2844 53.5912C79.215 51.5276 79.8788 47.5436 77.7686 44.6832C72.99 38.2056 64.0002 33.8341 56.984 39.8845C54.3267 42.1759 52.2119 44.9873 50.7982 48.2002L48.002 54.5548V55C48.002 60.5408 54.8547 66.9952 60.8112 68.9392C60.9388 68.9808 61.0686 69.0098 61.2014 69.0292C61.9714 68.462 62.8166 68.0076 63.8108 67.7656L73.7048 65.3564C78.7882 64.1186 80.0496 57.6486 75.7856 54.682L75.133 54.2408C75.6666 53.9726 76.0158 53.7804 76.2844 53.5912Z" fill="#F682A5"/>
<path d="M47.9652 54.4924C47.7911 59.9374 54.2073 66.6486 60.2232 68.7584M47.9652 54.4924C47.356 55.5378 41.1344 60.5254 41.0257 62.638C40.4985 66.8336 47.6266 74.7156 53.1227 74.9848C55.1751 75.276 58.022 71.8222 60.9078 69.2562C62.4972 67.8428 64.7878 67.5158 73.9566 65.2406C77.2838 64.6622 81.281 58.923 75.3554 54.0582M47.9652 54.4924C49.8216 50.09 53.031 41.5794 59.325 38.2186C61.881 36.7663 68.5198 35.4292 75.025 41.6135C77.263 43.4957 81.1424 47.6187 77.5316 52.369C75.1242 55.1746 71.4842 54.3624 71.1306 59.2146" stroke="#F682A5" stroke-width="3" stroke-linecap="round" stroke-linejoin="round"/>
<path d="M40.8183 106L35.8902 94.8H37.6183L42.1463 105.136H41.1543L45.7143 94.8H47.3143L42.4023 106H40.8183ZM51.5099 106.096C50.6565 106.096 49.8992 105.909 49.2379 105.536C48.5765 105.163 48.0539 104.651 47.6699 104C47.2859 103.339 47.0939 102.592 47.0939 101.76C47.0939 100.917 47.2859 100.171 47.6699 99.52C48.0539 98.8693 48.5765 98.3627 49.2379 98C49.8992 97.6267 50.6565 97.44 51.5099 97.44C52.3525 97.44 53.1045 97.6267 53.7659 98C54.4379 98.3627 54.9605 98.8693 55.3339 99.52C55.7179 100.16 55.9099 100.907 55.9099 101.76C55.9099 102.603 55.7179 103.349 55.3339 104C54.9605 104.651 54.4379 105.163 53.7659 105.536C53.1045 105.909 52.3525 106.096 51.5099 106.096ZM51.5099 104.752C52.0539 104.752 52.5392 104.629 52.9659 104.384C53.4032 104.139 53.7445 103.792 53.9899 103.344C54.2352 102.885 54.3579 102.357 54.3579 101.76C54.3579 101.152 54.2352 100.629 53.9899 100.192C53.7445 99.744 53.4032 99.3973 52.9659 99.152C52.5392 98.9067 52.0539 98.784 51.5099 98.784C50.9659 98.784 50.4805 98.9067 50.0539 99.152C49.6272 99.3973 49.2859 99.744 49.0299 100.192C48.7739 100.629 48.6459 101.152 48.6459 101.76C48.6459 102.357 48.7739 102.885 49.0299 103.344C49.2859 103.792 49.6272 104.139 50.0539 104.384C50.4805 104.629 50.9659 104.752 51.5099 104.752ZM58.0341 106V94.128H59.5701V106H58.0341ZM62.5029 106V94.128H64.0389V106H62.5029ZM70.7476 106.096C69.841 106.096 69.041 105.909 68.3476 105.536C67.665 105.163 67.1316 104.651 66.7476 104C66.3743 103.349 66.1876 102.603 66.1876 101.76C66.1876 100.917 66.369 100.171 66.7316 99.52C67.105 98.8693 67.6116 98.3627 68.2516 98C68.9023 97.6267 69.633 97.44 70.4436 97.44C71.265 97.44 71.9903 97.6213 72.6196 97.984C73.249 98.3467 73.7396 98.8587 74.0916 99.52C74.4543 100.171 74.6356 100.933 74.6356 101.808C74.6356 101.872 74.6303 101.947 74.6196 102.032C74.6196 102.117 74.6143 102.197 74.6036 102.272H67.3876V101.168H73.8036L73.1796 101.552C73.1903 101.008 73.0783 100.523 72.8436 100.096C72.609 99.6693 72.2836 99.3387 71.8676 99.104C71.4623 98.8587 70.9876 98.736 70.4436 98.736C69.9103 98.736 69.4356 98.8587 69.0196 99.104C68.6036 99.3387 68.2783 99.6747 68.0436 100.112C67.809 100.539 67.6916 101.029 67.6916 101.584V101.84C67.6916 102.405 67.8196 102.912 68.0756 103.36C68.3423 103.797 68.7103 104.139 69.1796 104.384C69.649 104.629 70.1876 104.752 70.7956 104.752C71.297 104.752 71.7503 104.667 72.1556 104.496C72.5716 104.325 72.9343 104.069 73.2436 103.728L74.0916 104.72C73.7076 105.168 73.2276 105.509 72.6516 105.744C72.0863 105.979 71.4516 106.096 70.7476 106.096ZM76.9803 109.2C76.5749 109.2 76.1803 109.131 75.7963 108.992C75.4123 108.864 75.0816 108.672 74.8042 108.416L75.4603 107.264C75.6736 107.467 75.9083 107.621 76.1643 107.728C76.4203 107.835 76.6923 107.888 76.9803 107.888C77.3536 107.888 77.6629 107.792 77.9083 107.6C78.1536 107.408 78.3829 107.067 78.5963 106.576L79.1243 105.408L79.2843 105.216L82.6123 97.52H84.1163L80.0043 106.848C79.7589 107.445 79.4816 107.915 79.1723 108.256C78.8736 108.597 78.5429 108.837 78.1803 108.976C77.8176 109.125 77.4176 109.2 76.9803 109.2ZM78.9963 106.272L75.1242 97.52H76.7243L80.0203 105.072L78.9963 106.272Z" fill="black" fill-opacity="0.8"/>
<path d="M20 30C25.5228 30 30 25.5228 30 20C30 14.4772 25.5228 10 20 10C14.4772 10 10 14.4772 10 20C10 25.5228 14.4772 30 20 30Z" stroke="#D6D3D1" stroke-width="1.5" stroke-linejoin="round"/>
</svg>
