<svg width="120" height="128" viewBox="0 0 120 128" fill="none" xmlns="http://www.w3.org/2000/svg">
<rect x="0.5" y="0.5" width="119" height="127" rx="7.5" fill="white"/>
<rect x="0.5" y="0.5" width="119" height="127" rx="7.5" stroke="#D6D3D1"/>
<path opacity="0.4" d="M80 56C80 67.0456 71.0456 76 60 76C48.9543 76 40 67.0456 40 56C40 44.9543 48.9543 36 60 36C71.0456 36 80 44.9543 80 56Z" fill="#F9A474"/>
<path d="M80 56C80 67.0456 71.0456 76 60 76C48.9543 76 40 67.0456 40 56C40 44.9543 48.9543 36 60 36C71.0456 36 80 44.9543 80 56Z" stroke="#F9A474" stroke-width="3"/>
<path d="M40 56C44.5606 60.8578 51.8217 64 60 64C68.1784 64 75.4394 60.8578 80 56" stroke="#F9A474" stroke-width="3"/>
<path d="M60 36V76" stroke="#F9A474" stroke-width="3" stroke-linecap="round" stroke-linejoin="round"/>
<path d="M46.3112 42C45.5478 45 46.0801 50 49.1324 54C52.3416 58.2056 54.3649 64 46.7386 70" stroke="#F9A474" stroke-width="3" stroke-linecap="round" stroke-linejoin="round"/>
<path d="M73.6888 42C74.4522 45 73.9198 50 70.8676 54C67.6584 58.2056 65.6352 64 73.2614 70" stroke="#F9A474" stroke-width="3" stroke-linecap="round" stroke-linejoin="round"/>
<path d="M23.0003 106V94.8H28.0243C29.315 94.8 30.307 95.0613 31.0003 95.584C31.6936 96.096 32.0403 96.8 32.0403 97.696C32.0403 98.304 31.9016 98.816 31.6243 99.232C31.3576 99.648 30.995 99.968 30.5363 100.192C30.0776 100.416 29.5816 100.528 29.0483 100.528L29.3363 100.048C29.9763 100.048 30.5416 100.16 31.0323 100.384C31.523 100.608 31.9123 100.939 32.2003 101.376C32.4883 101.803 32.6323 102.336 32.6323 102.976C32.6323 103.936 32.2696 104.683 31.5443 105.216C30.8296 105.739 29.763 106 28.3443 106H23.0003ZM24.6003 104.704H28.2803C29.1656 104.704 29.843 104.555 30.3123 104.256C30.7816 103.957 31.0163 103.488 31.0163 102.848C31.0163 102.197 30.7816 101.723 30.3123 101.424C29.843 101.125 29.1656 100.976 28.2803 100.976H24.4563V99.68H27.8803C28.691 99.68 29.3203 99.5307 29.7683 99.232C30.2163 98.9333 30.4403 98.4853 30.4403 97.888C30.4403 97.2907 30.2163 96.8427 29.7683 96.544C29.3203 96.2453 28.691 96.096 27.8803 96.096H24.6003V104.704ZM40.1497 106V104.208L40.0697 103.872V100.816C40.0697 100.165 39.8777 99.664 39.4937 99.312C39.1204 98.9493 38.555 98.768 37.7977 98.768C37.2964 98.768 36.8057 98.8533 36.3257 99.024C35.8457 99.184 35.4404 99.4027 35.1097 99.68L34.4697 98.528C34.907 98.176 35.4297 97.9093 36.0377 97.728C36.6564 97.536 37.3017 97.44 37.9737 97.44C39.1364 97.44 40.0324 97.7227 40.6617 98.288C41.291 98.8533 41.6057 99.7173 41.6057 100.88V106H40.1497ZM37.3657 106.096C36.7364 106.096 36.1817 105.989 35.7017 105.776C35.2324 105.563 34.8697 105.269 34.6137 104.896C34.3577 104.512 34.2297 104.08 34.2297 103.6C34.2297 103.141 34.3364 102.725 34.5497 102.352C34.7737 101.979 35.131 101.68 35.6217 101.456C36.123 101.232 36.795 101.12 37.6377 101.12H40.3257V102.224H37.7017C36.9337 102.224 36.4164 102.352 36.1497 102.608C35.883 102.864 35.7497 103.173 35.7497 103.536C35.7497 103.952 35.915 104.288 36.2457 104.544C36.5764 104.789 37.035 104.912 37.6217 104.912C38.1977 104.912 38.699 104.784 39.1257 104.528C39.563 104.272 39.8777 103.899 40.0697 103.408L40.3737 104.464C40.171 104.965 39.8137 105.365 39.3017 105.664C38.7897 105.952 38.1444 106.096 37.3657 106.096ZM46.8802 106.096C46.1762 106.096 45.5042 106 44.8642 105.808C44.2349 105.616 43.7389 105.381 43.3762 105.104L44.0162 103.888C44.3789 104.133 44.8269 104.341 45.3602 104.512C45.8935 104.683 46.4375 104.768 46.9922 104.768C47.7069 104.768 48.2189 104.667 48.5282 104.464C48.8482 104.261 49.0082 103.979 49.0082 103.616C49.0082 103.349 48.9122 103.141 48.7202 102.992C48.5282 102.843 48.2722 102.731 47.9522 102.656C47.6429 102.581 47.2962 102.517 46.9122 102.464C46.5282 102.4 46.1442 102.325 45.7602 102.24C45.3762 102.144 45.0242 102.016 44.7042 101.856C44.3842 101.685 44.1282 101.456 43.9362 101.168C43.7442 100.869 43.6482 100.475 43.6482 99.984C43.6482 99.472 43.7922 99.024 44.0802 98.64C44.3682 98.256 44.7735 97.9627 45.2962 97.76C45.8295 97.5467 46.4589 97.44 47.1842 97.44C47.7389 97.44 48.2989 97.5093 48.8642 97.648C49.4402 97.776 49.9095 97.9627 50.2722 98.208L49.6162 99.424C49.2322 99.168 48.8322 98.992 48.4162 98.896C48.0002 98.8 47.5842 98.752 47.1682 98.752C46.4962 98.752 45.9949 98.864 45.6642 99.088C45.3335 99.3013 45.1682 99.5787 45.1682 99.92C45.1682 100.208 45.2642 100.432 45.4562 100.592C45.6589 100.741 45.9149 100.859 46.2242 100.944C46.5442 101.029 46.8962 101.104 47.2802 101.168C47.6642 101.221 48.0482 101.296 48.4322 101.392C48.8162 101.477 49.1629 101.6 49.4722 101.76C49.7922 101.92 50.0482 102.144 50.2402 102.432C50.4429 102.72 50.5442 103.104 50.5442 103.584C50.5442 104.096 50.3949 104.539 50.0962 104.912C49.7975 105.285 49.3762 105.579 48.8322 105.792C48.2882 105.995 47.6375 106.096 46.8802 106.096ZM55.9678 106.096C55.1465 106.096 54.4105 105.915 53.7598 105.552C53.1198 105.189 52.6131 104.683 52.2398 104.032C51.8665 103.381 51.6798 102.624 51.6798 101.76C51.6798 100.896 51.8665 100.144 52.2398 99.504C52.6131 98.8533 53.1198 98.3467 53.7598 97.984C54.4105 97.6213 55.1465 97.44 55.9678 97.44C56.7038 97.44 57.3598 97.6 57.9358 97.92C58.5118 98.24 58.9651 98.72 59.2958 99.36C59.6371 100 59.8078 100.8 59.8078 101.76C59.8078 102.72 59.6318 103.52 59.2798 104.16C58.9385 104.8 58.4798 105.285 57.9038 105.616C57.3278 105.936 56.6825 106.096 55.9678 106.096ZM56.0958 104.752C56.6291 104.752 57.1091 104.629 57.5358 104.384C57.9731 104.139 58.3145 103.792 58.5598 103.344C58.8158 102.885 58.9438 102.357 58.9438 101.76C58.9438 101.152 58.8158 100.629 58.5598 100.192C58.3145 99.744 57.9731 99.3973 57.5358 99.152C57.1091 98.9067 56.6291 98.784 56.0958 98.784C55.5518 98.784 55.0665 98.9067 54.6398 99.152C54.2131 99.3973 53.8718 99.744 53.6158 100.192C53.3598 100.629 53.2318 101.152 53.2318 101.76C53.2318 102.357 53.3598 102.885 53.6158 103.344C53.8718 103.792 54.2131 104.139 54.6398 104.384C55.0665 104.629 55.5518 104.752 56.0958 104.752ZM58.9278 109.104V103.744L59.0878 101.776L58.9918 99.808V97.52H60.4638V109.104H58.9278ZM66.9381 106.096C66.2127 106.096 65.5727 105.963 65.0181 105.696C64.4741 105.429 64.0474 105.024 63.7381 104.48C63.4394 103.925 63.2901 103.232 63.2901 102.4V97.52H64.8261V102.224C64.8261 103.056 65.0234 103.68 65.4181 104.096C65.8234 104.512 66.3887 104.72 67.1141 104.72C67.6474 104.72 68.1114 104.613 68.5061 104.4C68.9007 104.176 69.2047 103.856 69.4181 103.44C69.6314 103.013 69.7381 102.501 69.7381 101.904V97.52H71.2741V106H69.8181V103.712L70.0581 104.32C69.7807 104.885 69.3647 105.323 68.8101 105.632C68.2554 105.941 67.6314 106.096 66.9381 106.096ZM77.9742 106.096C77.0675 106.096 76.2675 105.909 75.5742 105.536C74.8915 105.163 74.3582 104.651 73.9742 104C73.6009 103.349 73.4142 102.603 73.4142 101.76C73.4142 100.917 73.5955 100.171 73.9582 99.52C74.3315 98.8693 74.8382 98.3627 75.4782 98C76.1289 97.6267 76.8595 97.44 77.6702 97.44C78.4915 97.44 79.2169 97.6213 79.8462 97.984C80.4755 98.3467 80.9662 98.8587 81.3182 99.52C81.6809 100.171 81.8622 100.933 81.8622 101.808C81.8622 101.872 81.8569 101.947 81.8462 102.032C81.8462 102.117 81.8409 102.197 81.8302 102.272H74.6142V101.168H81.0302L80.4062 101.552C80.4169 101.008 80.3049 100.523 80.0702 100.096C79.8355 99.6693 79.5102 99.3387 79.0942 99.104C78.6889 98.8587 78.2142 98.736 77.6702 98.736C77.1369 98.736 76.6622 98.8587 76.2462 99.104C75.8302 99.3387 75.5049 99.6747 75.2702 100.112C75.0355 100.539 74.9182 101.029 74.9182 101.584V101.84C74.9182 102.405 75.0462 102.912 75.3022 103.36C75.5689 103.797 75.9369 104.139 76.4062 104.384C76.8755 104.629 77.4142 104.752 78.0222 104.752C78.5235 104.752 78.9769 104.667 79.3822 104.496C79.7982 104.325 80.1609 104.069 80.4702 103.728L81.3182 104.72C80.9342 105.168 80.4542 105.509 79.8782 105.744C79.3129 105.979 78.6782 106.096 77.9742 106.096ZM86.9071 106.096C86.0537 106.096 85.3924 105.867 84.9231 105.408C84.4537 104.949 84.2191 104.293 84.2191 103.44V95.664H85.7551V103.376C85.7551 103.835 85.8671 104.187 86.0911 104.432C86.3257 104.677 86.6564 104.8 87.0831 104.8C87.5631 104.8 87.9631 104.667 88.2831 104.4L88.7631 105.504C88.5284 105.707 88.2457 105.856 87.9151 105.952C87.5951 106.048 87.2591 106.096 86.9071 106.096ZM82.7791 98.784V97.52H88.1871V98.784H82.7791ZM94.1148 106.096C93.2081 106.096 92.4081 105.909 91.7148 105.536C91.0321 105.163 90.4988 104.651 90.1148 104C89.7415 103.349 89.5548 102.603 89.5548 101.76C89.5548 100.917 89.7361 100.171 90.0988 99.52C90.4721 98.8693 90.9788 98.3627 91.6188 98C92.2695 97.6267 93.0001 97.44 93.8108 97.44C94.6321 97.44 95.3575 97.6213 95.9868 97.984C96.6161 98.3467 97.1068 98.8587 97.4588 99.52C97.8215 100.171 98.0028 100.933 98.0028 101.808C98.0028 101.872 97.9975 101.947 97.9868 102.032C97.9868 102.117 97.9815 102.197 97.9708 102.272H90.7548V101.168H97.1708L96.5468 101.552C96.5575 101.008 96.4455 100.523 96.2108 100.096C95.9761 99.6693 95.6508 99.3387 95.2348 99.104C94.8295 98.8587 94.3548 98.736 93.8108 98.736C93.2775 98.736 92.8028 98.8587 92.3868 99.104C91.9708 99.3387 91.6455 99.6747 91.4108 100.112C91.1761 100.539 91.0588 101.029 91.0588 101.584V101.84C91.0588 102.405 91.1868 102.912 91.4428 103.36C91.7095 103.797 92.0775 104.139 92.5468 104.384C93.0161 104.629 93.5548 104.752 94.1628 104.752C94.6641 104.752 95.1175 104.667 95.5228 104.496C95.9388 104.325 96.3015 104.069 96.6108 103.728L97.4588 104.72C97.0748 105.168 96.5948 105.509 96.0188 105.744C95.4535 105.979 94.8188 106.096 94.1148 106.096Z" fill="black" fill-opacity="0.8"/>
<path d="M20 30C25.5228 30 30 25.5228 30 20C30 14.4772 25.5228 10 20 10C14.4772 10 10 14.4772 10 20C10 25.5228 14.4772 30 20 30Z" stroke="#D6D3D1" stroke-width="1.5" stroke-linejoin="round"/>
</svg>
