<svg width="120" height="128" viewBox="0 0 120 128" fill="none" xmlns="http://www.w3.org/2000/svg">
<rect x="0.5" y="0.5" width="119" height="127" rx="7.5" fill="white"/>
<rect x="0.5" y="0.5" width="119" height="127" rx="7.5" stroke="#D6D3D1"/>
<path d="M80.002 56C80.002 67.0456 71.0476 76 60.002 76C48.9563 76 40.002 67.0456 40.002 56C40.002 44.9543 48.9563 36 60.002 36C71.0476 36 80.002 44.9543 80.002 56Z" stroke="#C3B2E7" stroke-width="3"/>
<path opacity="0.4" fill-rule="evenodd" clip-rule="evenodd" d="M80.003 55.9998C80.003 61.2756 77.9602 66.0742 74.6226 69.648L67.2346 68.3108L64.7314 75.4376C63.2154 75.805 61.632 75.9998 60.003 75.9998C57.168 75.9998 54.4707 75.41 52.0273 74.3462L52.1057 66.3328L44.0095 66.4198H42.9284C41.327 63.8012 40.311 60.7858 40.0625 57.5554L46.396 52.8774L43.1139 45.4407L43.0755 45.343C45.5658 41.3956 49.3987 38.3801 53.933 36.9375L54.0029 36.9998L60.036 41.2446L66.003 36.9998L66.08 36.9398C70.1532 38.2373 73.66 40.8045 76.1354 44.1761L76.0626 44.3915L73.6098 50.7794L79.9968 55.4966L79.9982 55.562C80.0014 55.7076 80.003 55.8536 80.003 55.9998ZM60.5876 50.6979C60.239 50.434 59.767 50.434 59.4184 50.6979L54.9129 54.108C54.5644 54.3718 54.4185 54.8394 54.5517 55.2664L56.2726 60.7842C56.4058 61.211 56.7876 61.5 57.2184 61.5H62.7876C63.2184 61.5 63.6002 61.211 63.7334 60.7842L65.4542 55.2664C65.5874 54.8394 65.4416 54.3718 65.093 54.108L60.5876 50.6979Z" fill="#C3B2E7"/>
<path d="M59.4174 50.6979C59.766 50.434 60.238 50.434 60.5866 50.6979L65.092 54.108C65.4406 54.3718 65.5864 54.8394 65.4532 55.2664L63.7324 60.7842C63.5992 61.211 63.2174 61.5 62.7866 61.5H57.2174C56.7866 61.5 56.4048 61.211 56.2716 60.7842L54.5507 55.2664C54.4176 54.8394 54.5634 54.3718 54.9119 54.108L59.4174 50.6979Z" stroke="#C3B2E7" stroke-width="3"/>
<path d="M60.002 50V42M66.002 54L74.002 51M64.002 62L68.002 68M56.002 61L52.002 66M54.002 55L46.002 53" stroke="#C3B2E7" stroke-width="3" stroke-linecap="round" stroke-linejoin="round"/>
<path d="M54.002 37L60.035 41.2448L66.002 37M40.002 57.5996L46.3951 52.8776L43.1129 45.4409M74.9426 69.7062L67.2336 68.311L64.533 76M76.0616 44.3917L73.609 50.7796L80.002 55.5014M52.0218 74.8118L52.1048 66.333L44.0086 66.42" stroke="#C3B2E7" stroke-width="3" stroke-linejoin="round"/>
<path d="M31.9247 100.096H37.7007V101.472H31.9247V100.096ZM32.0847 106H30.4847V94.8H38.3887V96.192H32.0847V106ZM43.7193 106.096C42.994 106.096 42.354 105.963 41.7993 105.696C41.2553 105.429 40.8286 105.024 40.5193 104.48C40.2206 103.925 40.0713 103.232 40.0713 102.4V97.52H41.6073V102.224C41.6073 103.056 41.8046 103.68 42.1993 104.096C42.6046 104.512 43.17 104.72 43.8953 104.72C44.4286 104.72 44.8926 104.613 45.2873 104.4C45.682 104.176 45.986 103.856 46.1993 103.44C46.4126 103.013 46.5193 102.501 46.5193 101.904V97.52H48.0553V106H46.5993V103.712L46.8393 104.32C46.562 104.885 46.146 105.323 45.5913 105.632C45.0366 105.941 44.4126 106.096 43.7193 106.096ZM53.8914 106.096C53.0381 106.096 52.3768 105.867 51.9074 105.408C51.4381 104.949 51.2034 104.293 51.2034 103.44V95.664H52.7394V103.376C52.7394 103.835 52.8514 104.187 53.0754 104.432C53.3101 104.677 53.6408 104.8 54.0674 104.8C54.5474 104.8 54.9474 104.667 55.2674 104.4L55.7474 105.504C55.5128 105.707 55.2301 105.856 54.8994 105.952C54.5794 106.048 54.2434 106.096 53.8914 106.096ZM49.7634 98.784V97.52H55.1714V98.784H49.7634ZM61.0992 106.096C60.1925 106.096 59.3925 105.909 58.6992 105.536C58.0165 105.163 57.4832 104.651 57.0992 104C56.7259 103.349 56.5392 102.603 56.5392 101.76C56.5392 100.917 56.7205 100.171 57.0832 99.52C57.4565 98.8693 57.9632 98.3627 58.6032 98C59.2539 97.6267 59.9845 97.44 60.7952 97.44C61.6165 97.44 62.3419 97.6213 62.9712 97.984C63.6005 98.3467 64.0912 98.8587 64.4432 99.52C64.8059 100.171 64.9872 100.933 64.9872 101.808C64.9872 101.872 64.9819 101.947 64.9712 102.032C64.9712 102.117 64.9659 102.197 64.9552 102.272H57.7392V101.168H64.1552L63.5312 101.552C63.5419 101.008 63.4299 100.523 63.1952 100.096C62.9605 99.6693 62.6352 99.3387 62.2192 99.104C61.8139 98.8587 61.3392 98.736 60.7952 98.736C60.2619 98.736 59.7872 98.8587 59.3712 99.104C58.9552 99.3387 58.6299 99.6747 58.3952 100.112C58.1605 100.539 58.0432 101.029 58.0432 101.584V101.84C58.0432 102.405 58.1712 102.912 58.4272 103.36C58.6939 103.797 59.0619 104.139 59.5312 104.384C60.0005 104.629 60.5392 104.752 61.1472 104.752C61.6485 104.752 62.1019 104.667 62.5072 104.496C62.9232 104.325 63.2859 104.069 63.5952 103.728L64.4432 104.72C64.0592 105.168 63.5792 105.509 63.0032 105.744C62.4379 105.979 61.8032 106.096 61.0992 106.096ZM71.6161 106.096C70.8907 106.096 70.2347 105.936 69.6481 105.616C69.0721 105.285 68.6134 104.8 68.2721 104.16C67.9414 103.52 67.7761 102.72 67.7761 101.76C67.7761 100.8 67.9467 100 68.2881 99.36C68.6401 98.72 69.1041 98.24 69.6801 97.92C70.2667 97.6 70.9121 97.44 71.6161 97.44C72.4481 97.44 73.1841 97.6213 73.8241 97.984C74.4641 98.3467 74.9707 98.8533 75.3441 99.504C75.7174 100.144 75.9041 100.896 75.9041 101.76C75.9041 102.624 75.7174 103.381 75.3441 104.032C74.9707 104.683 74.4641 105.189 73.8241 105.552C73.1841 105.915 72.4481 106.096 71.6161 106.096ZM67.1201 106V94.128H68.6561V99.776L68.4961 101.744L68.5921 103.712V106H67.1201ZM71.4881 104.752C72.0321 104.752 72.5174 104.629 72.9441 104.384C73.3814 104.139 73.7227 103.792 73.9681 103.344C74.2241 102.885 74.3521 102.357 74.3521 101.76C74.3521 101.152 74.2241 100.629 73.9681 100.192C73.7227 99.744 73.3814 99.3973 72.9441 99.152C72.5174 98.9067 72.0321 98.784 71.4881 98.784C70.9547 98.784 70.4694 98.9067 70.0321 99.152C69.6054 99.3973 69.2641 99.744 69.0081 100.192C68.7627 100.629 68.6401 101.152 68.6401 101.76C68.6401 102.357 68.7627 102.885 69.0081 103.344C69.2641 103.792 69.6054 104.139 70.0321 104.384C70.4694 104.629 70.9547 104.752 71.4881 104.752ZM81.6583 106.096C80.805 106.096 80.0476 105.909 79.3863 105.536C78.725 105.163 78.2023 104.651 77.8183 104C77.4343 103.339 77.2423 102.592 77.2423 101.76C77.2423 100.917 77.4343 100.171 77.8183 99.52C78.2023 98.8693 78.725 98.3627 79.3863 98C80.0476 97.6267 80.805 97.44 81.6583 97.44C82.501 97.44 83.253 97.6267 83.9143 98C84.5863 98.3627 85.109 98.8693 85.4823 99.52C85.8663 100.16 86.0583 100.907 86.0583 101.76C86.0583 102.603 85.8663 103.349 85.4823 104C85.109 104.651 84.5863 105.163 83.9143 105.536C83.253 105.909 82.501 106.096 81.6583 106.096ZM81.6583 104.752C82.2023 104.752 82.6876 104.629 83.1143 104.384C83.5516 104.139 83.893 103.792 84.1383 103.344C84.3836 102.885 84.5063 102.357 84.5063 101.76C84.5063 101.152 84.3836 100.629 84.1383 100.192C83.893 99.744 83.5516 99.3973 83.1143 99.152C82.6876 98.9067 82.2023 98.784 81.6583 98.784C81.1143 98.784 80.629 98.9067 80.2023 99.152C79.7756 99.3973 79.4343 99.744 79.1783 100.192C78.9223 100.629 78.7943 101.152 78.7943 101.76C78.7943 102.357 78.9223 102.885 79.1783 103.344C79.4343 103.792 79.7756 104.139 80.2023 104.384C80.629 104.629 81.1143 104.752 81.6583 104.752ZM88.1826 106V94.128H89.7186V106H88.1826Z" fill="black" fill-opacity="0.8"/>
<path d="M20 30C25.5228 30 30 25.5228 30 20C30 14.4772 25.5228 10 20 10C14.4772 10 10 14.4772 10 20C10 25.5228 14.4772 30 20 30Z" stroke="#D6D3D1" stroke-width="1.5" stroke-linejoin="round"/>
</svg>
