<svg width="120" height="128" viewBox="0 0 120 128" fill="none" xmlns="http://www.w3.org/2000/svg">
<rect x="0.5" y="0.5" width="119" height="127" rx="7.5" fill="white"/>
<rect x="0.5" y="0.5" width="119" height="127" rx="7.5" stroke="#D6D3D1"/>
<path d="M56 40C56 42.2091 57.7908 44 60 44C62.2092 44 64 42.2091 64 40C64 37.7909 62.2092 36 60 36C57.7908 36 56 37.7909 56 40Z" stroke="#C7D78D" stroke-width="3"/>
<path opacity="0.4" d="M51.772 52C53.1435 54.7936 54.6088 57.4098 54.2704 60.6284C53.7294 65.7738 47.4902 67.7104 43.5004 70.0808C40.8865 71.6338 41.8638 76 45.0716 76C48.9609 76 52.4321 75.6896 55.9412 74.0402L59.8114 71.6586L63.7634 74.0402C67.3468 75.6896 70.8916 76 74.8632 76C78.139 76 79.137 71.6338 76.4678 70.0808C72.3934 67.7104 66.0222 65.7738 65.4696 60.6284C65.124 57.4098 66.6204 54.7936 68.021 52L68.3592 51.3906C66.1984 49.2921 63.25 48 60 48C56.7002 48 53.7115 49.3319 51.5421 51.4874L51.772 52Z" fill="#C7D78D"/>
<path d="M68.021 52C66.6204 54.7936 65.124 57.4098 65.4696 60.6284C66.0222 65.7738 72.3934 67.7104 76.4678 70.0808C79.137 71.6338 78.139 76 74.8632 76C70.8916 76 67.3468 75.6896 63.7634 74.0402L56.7366 69.8056C55.9164 69.428 54.9155 69.5034 54 69.8056" stroke="#C7D78D" stroke-width="3" stroke-linecap="round" stroke-linejoin="round"/>
<path d="M51.772 52C53.1435 54.7936 54.6088 57.4098 54.2704 60.6284C53.7294 65.7738 47.4902 67.7104 43.5004 70.0808C40.8865 71.6338 41.8638 76 45.0716 76C48.9609 76 52.4321 75.6896 55.9412 74.0402L62.8222 69.8056C63.7774 69.3566 64.9826 69.548 66 70" stroke="#C7D78D" stroke-width="3" stroke-linecap="round" stroke-linejoin="round"/>
<path d="M42 64C46.8917 64 49.0874 58.5898 49.7867 54.8582C49.9693 53.8842 50.2649 52.913 50.9125 52.1628C53.113 49.6135 56.368 48 60 48C63.632 48 66.887 49.6135 69.0874 52.1628C69.735 52.913 70.0308 53.8842 70.2134 54.8582C70.9126 58.5898 73.1082 64 78 64" stroke="#C7D78D" stroke-width="3" stroke-linecap="round" stroke-linejoin="round"/>
<path d="M44.2981 106V101.712L44.6661 102.704L39.8501 94.8H41.5621L45.6101 101.472H44.6821L48.7461 94.8H50.3301L45.5301 102.704L45.8821 101.712V106H44.2981ZM54.4083 106.096C53.555 106.096 52.7976 105.909 52.1363 105.536C51.475 105.163 50.9523 104.651 50.5683 104C50.1843 103.339 49.9923 102.592 49.9923 101.76C49.9923 100.917 50.1843 100.171 50.5683 99.52C50.9523 98.8693 51.475 98.3627 52.1363 98C52.7976 97.6267 53.555 97.44 54.4083 97.44C55.251 97.44 56.003 97.6267 56.6643 98C57.3363 98.3627 57.859 98.8693 58.2323 99.52C58.6163 100.16 58.8083 100.907 58.8083 101.76C58.8083 102.603 58.6163 103.349 58.2323 104C57.859 104.651 57.3363 105.163 56.6643 105.536C56.003 105.909 55.251 106.096 54.4083 106.096ZM54.4083 104.752C54.9523 104.752 55.4376 104.629 55.8643 104.384C56.3016 104.139 56.643 103.792 56.8883 103.344C57.1336 102.885 57.2563 102.357 57.2563 101.76C57.2563 101.152 57.1336 100.629 56.8883 100.192C56.643 99.744 56.3016 99.3973 55.8643 99.152C55.4376 98.9067 54.9523 98.784 54.4083 98.784C53.8643 98.784 53.379 98.9067 52.9523 99.152C52.5256 99.3973 52.1843 99.744 51.9283 100.192C51.6723 100.629 51.5443 101.152 51.5443 101.76C51.5443 102.357 51.6723 102.885 51.9283 103.344C52.1843 103.792 52.5256 104.139 52.9523 104.384C53.379 104.629 53.8643 104.752 54.4083 104.752ZM64.6446 109.2C63.8659 109.2 63.1086 109.088 62.3726 108.864C61.6472 108.651 61.0552 108.341 60.5966 107.936L61.3326 106.752C61.7272 107.093 62.2126 107.36 62.7886 107.552C63.3646 107.755 63.9672 107.856 64.5966 107.856C65.5992 107.856 66.3352 107.621 66.8046 107.152C67.2739 106.683 67.5086 105.968 67.5086 105.008V103.216L67.6686 101.536L67.5886 99.84V97.52H69.0446V104.848C69.0446 106.341 68.6712 107.44 67.9246 108.144C67.1779 108.848 66.0846 109.2 64.6446 109.2ZM64.4526 105.648C63.6312 105.648 62.8952 105.477 62.2446 105.136C61.6046 104.784 61.0926 104.299 60.7086 103.68C60.3352 103.061 60.1486 102.347 60.1486 101.536C60.1486 100.715 60.3352 100 60.7086 99.392C61.0926 98.7733 61.6046 98.2933 62.2446 97.952C62.8952 97.6107 63.6312 97.44 64.4526 97.44C65.1779 97.44 65.8392 97.5893 66.4366 97.888C67.0339 98.176 67.5086 98.624 67.8606 99.232C68.2232 99.84 68.4046 100.608 68.4046 101.536C68.4046 102.453 68.2232 103.216 67.8606 103.824C67.5086 104.432 67.0339 104.891 66.4366 105.2C65.8392 105.499 65.1779 105.648 64.4526 105.648ZM64.6286 104.304C65.1939 104.304 65.6952 104.187 66.1326 103.952C66.5699 103.717 66.9112 103.392 67.1566 102.976C67.4126 102.56 67.5406 102.08 67.5406 101.536C67.5406 100.992 67.4126 100.512 67.1566 100.096C66.9112 99.68 66.5699 99.36 66.1326 99.136C65.6952 98.9013 65.1939 98.784 64.6286 98.784C64.0632 98.784 63.5566 98.9013 63.1086 99.136C62.6712 99.36 62.3246 99.68 62.0686 100.096C61.8232 100.512 61.7006 100.992 61.7006 101.536C61.7006 102.08 61.8232 102.56 62.0686 102.976C62.3246 103.392 62.6712 103.717 63.1086 103.952C63.5566 104.187 64.0632 104.304 64.6286 104.304ZM77.2434 106V104.208L77.1634 103.872V100.816C77.1634 100.165 76.9714 99.664 76.5874 99.312C76.2141 98.9493 75.6488 98.768 74.8914 98.768C74.3901 98.768 73.8994 98.8533 73.4194 99.024C72.9394 99.184 72.5341 99.4027 72.2034 99.68L71.5634 98.528C72.0008 98.176 72.5234 97.9093 73.1314 97.728C73.7501 97.536 74.3954 97.44 75.0674 97.44C76.2301 97.44 77.1261 97.7227 77.7554 98.288C78.3848 98.8533 78.6994 99.7173 78.6994 100.88V106H77.2434ZM74.4594 106.096C73.8301 106.096 73.2754 105.989 72.7954 105.776C72.3261 105.563 71.9634 105.269 71.7074 104.896C71.4514 104.512 71.3234 104.08 71.3234 103.6C71.3234 103.141 71.4301 102.725 71.6434 102.352C71.8674 101.979 72.2248 101.68 72.7154 101.456C73.2168 101.232 73.8888 101.12 74.7314 101.12H77.4194V102.224H74.7954C74.0274 102.224 73.5101 102.352 73.2434 102.608C72.9768 102.864 72.8434 103.173 72.8434 103.536C72.8434 103.952 73.0088 104.288 73.3394 104.544C73.6701 104.789 74.1288 104.912 74.7154 104.912C75.2914 104.912 75.7928 104.784 76.2194 104.528C76.6568 104.272 76.9714 103.899 77.1634 103.408L77.4674 104.464C77.2648 104.965 76.9074 105.365 76.3954 105.664C75.8834 105.952 75.2381 106.096 74.4594 106.096Z" fill="black" fill-opacity="0.8"/>
<path d="M20 30C25.5228 30 30 25.5228 30 20C30 14.4772 25.5228 10 20 10C14.4772 10 10 14.4772 10 20C10 25.5228 14.4772 30 20 30Z" stroke="#D6D3D1" stroke-width="1.5" stroke-linejoin="round"/>
</svg>
