<svg width="122" height="130" viewBox="0 0 122 130" fill="none" xmlns="http://www.w3.org/2000/svg">
<rect x="1" y="1" width="120" height="128" rx="8" fill="white"/>
<rect x="1" y="1" width="120" height="128" rx="8" stroke="#F3541C" stroke-width="2"/>
<path opacity="0.4" d="M58.4368 46.7217L67 64.9982C62.6666 64.9982 61.3478 62.7124 56.8261 60.4266C53.2087 58.5982 48.1594 58.9028 46.6522 59.2838L52.7148 54.9976C53.3317 54.5614 53.6402 54.3434 53.7387 54.0114C53.8373 53.6794 53.6979 53.3284 53.4189 52.6262L52.5704 50.49C52.2531 49.6912 52.0944 49.2918 51.8077 49.002C51.7078 48.9011 51.5974 48.8111 51.4784 48.7335C51.137 48.5109 50.7138 48.4358 49.8675 48.2857L43.3663 47.1322C41.9974 46.8894 41 45.6994 41 44.3091C41 42.5625 42.5484 41.2217 44.277 41.4714L53.0686 42.7411C54.6521 42.9698 55.4438 43.0842 56.1042 43.4616C56.3795 43.619 56.6351 43.8085 56.8656 44.0262C57.4186 44.5485 57.758 45.2729 58.4368 46.7217Z" fill="#B8CEDC"/>
<path d="M58.4368 46.7217L67 64.9982C62.6666 64.9982 61.3478 62.7124 56.8261 60.4266C53.2087 58.5982 48.1594 58.9028 46.6522 59.2838L52.7148 54.9976C53.3317 54.5614 53.6402 54.3434 53.7387 54.0114C53.8373 53.6794 53.6979 53.3284 53.4189 52.6262L52.5704 50.49C52.2531 49.6912 52.0944 49.2918 51.8077 49.002C51.7078 48.9011 51.5974 48.8111 51.4784 48.7335C51.137 48.5109 50.7138 48.4358 49.8675 48.2857L43.3663 47.1322C41.9974 46.8894 41 45.6994 41 44.3091C41 42.5625 42.5484 41.2217 44.277 41.4714L53.0686 42.7411C54.6521 42.9698 55.4438 43.0842 56.1042 43.4616C56.3795 43.619 56.6351 43.8085 56.8656 44.0262C57.4186 44.5485 57.758 45.2729 58.4368 46.7217Z" stroke="#B8CEDC" stroke-width="3" stroke-linecap="round" stroke-linejoin="round"/>
<path d="M75 59.0039C78.3137 59.0039 81 56.3176 81 53.0039C81 49.6902 78.3137 47.0039 75 47.0039C71.6863 47.0039 69 49.6902 69 53.0039C69 56.3176 71.6863 59.0039 75 59.0039Z" stroke="#B8CEDC" stroke-width="3" stroke-linecap="round" stroke-linejoin="round"/>
<path d="M41 69.1686C43.1111 62.1054 52.537 65.3472 60 69.1686C67.463 72.99 75 75.4216 79 69.1686" stroke="#B8CEDC" stroke-width="3" stroke-linecap="round" stroke-linejoin="round"/>
<path d="M28.8831 107V95.8H30.1951L37.6031 105H36.9151V95.8H38.5151V107H37.2031L29.7951 97.8H30.4831V107H28.8831ZM46.9075 107V105.208L46.8275 104.872V101.816C46.8275 101.165 46.6355 100.664 46.2515 100.312C45.8782 99.9493 45.3128 99.768 44.5555 99.768C44.0542 99.768 43.5635 99.8533 43.0835 100.024C42.6035 100.184 42.1982 100.403 41.8675 100.68L41.2275 99.528C41.6648 99.176 42.1875 98.9093 42.7955 98.728C43.4142 98.536 44.0595 98.44 44.7315 98.44C45.8942 98.44 46.7902 98.7227 47.4195 99.288C48.0488 99.8533 48.3635 100.717 48.3635 101.88V107H46.9075ZM44.1235 107.096C43.4942 107.096 42.9395 106.989 42.4595 106.776C41.9902 106.563 41.6275 106.269 41.3715 105.896C41.1155 105.512 40.9875 105.08 40.9875 104.6C40.9875 104.141 41.0942 103.725 41.3075 103.352C41.5315 102.979 41.8888 102.68 42.3795 102.456C42.8808 102.232 43.5528 102.12 44.3955 102.12H47.0835V103.224H44.4595C43.6915 103.224 43.1742 103.352 42.9075 103.608C42.6408 103.864 42.5075 104.173 42.5075 104.536C42.5075 104.952 42.6728 105.288 43.0035 105.544C43.3342 105.789 43.7928 105.912 44.3795 105.912C44.9555 105.912 45.4568 105.784 45.8835 105.528C46.3208 105.272 46.6355 104.899 46.8275 104.408L47.1315 105.464C46.9288 105.965 46.5715 106.365 46.0595 106.664C45.5475 106.952 44.9022 107.096 44.1235 107.096ZM54.118 107.096C53.2647 107.096 52.6033 106.867 52.134 106.408C51.6647 105.949 51.43 105.293 51.43 104.44V96.664H52.966V104.376C52.966 104.835 53.078 105.187 53.302 105.432C53.5367 105.677 53.8673 105.8 54.294 105.8C54.774 105.8 55.174 105.667 55.494 105.4L55.974 106.504C55.7393 106.707 55.4567 106.856 55.126 106.952C54.806 107.048 54.47 107.096 54.118 107.096ZM49.99 99.784V98.52H55.398V99.784H49.99ZM63.095 107V105.208L63.015 104.872V101.816C63.015 101.165 62.823 100.664 62.439 100.312C62.0657 99.9493 61.5003 99.768 60.743 99.768C60.2417 99.768 59.751 99.8533 59.271 100.024C58.791 100.184 58.3857 100.403 58.055 100.68L57.415 99.528C57.8523 99.176 58.375 98.9093 58.983 98.728C59.6017 98.536 60.247 98.44 60.919 98.44C62.0817 98.44 62.9777 98.7227 63.607 99.288C64.2363 99.8533 64.551 100.717 64.551 101.88V107H63.095ZM60.311 107.096C59.6817 107.096 59.127 106.989 58.647 106.776C58.1777 106.563 57.815 106.269 57.559 105.896C57.303 105.512 57.175 105.08 57.175 104.6C57.175 104.141 57.2817 103.725 57.495 103.352C57.719 102.979 58.0763 102.68 58.567 102.456C59.0683 102.232 59.7403 102.12 60.583 102.12H63.271V103.224H60.647C59.879 103.224 59.3617 103.352 59.095 103.608C58.8283 103.864 58.695 104.173 58.695 104.536C58.695 104.952 58.8603 105.288 59.191 105.544C59.5217 105.789 59.9803 105.912 60.567 105.912C61.143 105.912 61.6443 105.784 62.071 105.528C62.5083 105.272 62.823 104.899 63.015 104.408L63.319 105.464C63.1163 105.965 62.759 106.365 62.247 106.664C61.735 106.952 61.0897 107.096 60.311 107.096ZM71.0895 107.096C70.2255 107.096 69.4522 106.909 68.7695 106.536C68.0975 106.163 67.5695 105.651 67.1855 105C66.8015 104.349 66.6095 103.603 66.6095 102.76C66.6095 101.917 66.8015 101.171 67.1855 100.52C67.5695 99.8693 68.0975 99.3627 68.7695 99C69.4522 98.6267 70.2255 98.44 71.0895 98.44C71.8575 98.44 72.5402 98.5947 73.1375 98.904C73.7455 99.2027 74.2148 99.6507 74.5455 100.248L73.3775 101C73.1002 100.584 72.7588 100.28 72.3535 100.088C71.9588 99.8853 71.5322 99.784 71.0735 99.784C70.5188 99.784 70.0228 99.9067 69.5855 100.152C69.1482 100.397 68.8015 100.744 68.5455 101.192C68.2895 101.629 68.1615 102.152 68.1615 102.76C68.1615 103.368 68.2895 103.896 68.5455 104.344C68.8015 104.792 69.1482 105.139 69.5855 105.384C70.0228 105.629 70.5188 105.752 71.0735 105.752C71.5322 105.752 71.9588 105.656 72.3535 105.464C72.7588 105.261 73.1002 104.952 73.3775 104.536L74.5455 105.272C74.2148 105.859 73.7455 106.312 73.1375 106.632C72.5402 106.941 71.8575 107.096 71.0895 107.096ZM70.3375 110.584C70.0602 110.584 69.8042 110.552 69.5695 110.488C69.3348 110.435 69.1162 110.349 68.9135 110.232L69.2495 109.448C69.4202 109.544 69.5908 109.613 69.7615 109.656C69.9428 109.699 70.1348 109.72 70.3375 109.72C70.6468 109.72 70.8708 109.661 71.0095 109.544C71.1588 109.437 71.2335 109.283 71.2335 109.08C71.2335 108.888 71.1588 108.733 71.0095 108.616C70.8708 108.509 70.6415 108.456 70.3215 108.456H69.8895L70.2895 106.888H71.1695L70.9295 107.8C71.3882 107.843 71.7348 107.987 71.9695 108.232C72.2042 108.477 72.3215 108.776 72.3215 109.128C72.3215 109.576 72.1402 109.928 71.7775 110.184C71.4148 110.451 70.9348 110.584 70.3375 110.584ZM81.7981 107V105.208L81.7181 104.872V101.816C81.7181 101.165 81.5261 100.664 81.1421 100.312C80.7688 99.9493 80.2035 99.768 79.4461 99.768C78.9448 99.768 78.4541 99.8533 77.9741 100.024C77.4941 100.184 77.0888 100.403 76.7581 100.68L76.1181 99.528C76.5555 99.176 77.0781 98.9093 77.6861 98.728C78.3048 98.536 78.9501 98.44 79.6221 98.44C80.7848 98.44 81.6808 98.7227 82.3101 99.288C82.9395 99.8533 83.2541 100.717 83.2541 101.88V107H81.7981ZM79.0141 107.096C78.3848 107.096 77.8301 106.989 77.3501 106.776C76.8808 106.563 76.5181 106.269 76.2621 105.896C76.0061 105.512 75.8781 105.08 75.8781 104.6C75.8781 104.141 75.9848 103.725 76.1981 103.352C76.4221 102.979 76.7795 102.68 77.2701 102.456C77.7715 102.232 78.4435 102.12 79.2861 102.12H81.9741V103.224H79.3501C78.5821 103.224 78.0648 103.352 77.7981 103.608C77.5315 103.864 77.3981 104.173 77.3981 104.536C77.3981 104.952 77.5635 105.288 77.8941 105.544C78.2248 105.789 78.6835 105.912 79.2701 105.912C79.8461 105.912 80.3475 105.784 80.7741 105.528C81.2115 105.272 81.5261 104.899 81.7181 104.408L82.0221 105.464C81.8195 105.965 81.4621 106.365 80.9501 106.664C80.4381 106.952 79.7928 107.096 79.0141 107.096ZM80.8541 97.24C80.5981 97.24 80.3688 97.1867 80.1661 97.08C79.9741 96.9733 79.7981 96.8507 79.6381 96.712C79.4781 96.5627 79.3235 96.4347 79.1741 96.328C79.0248 96.2213 78.8755 96.168 78.7261 96.168C78.4915 96.168 78.2995 96.2587 78.1501 96.44C78.0115 96.6107 77.9315 96.8507 77.9101 97.16H77.0461C77.0675 96.5627 77.2168 96.088 77.4941 95.736C77.7715 95.384 78.1448 95.208 78.6141 95.208C78.8701 95.208 79.0995 95.2667 79.3021 95.384C79.5048 95.4907 79.6861 95.6187 79.8461 95.768C80.0061 95.9067 80.1555 96.0293 80.2941 96.136C80.4435 96.2427 80.5928 96.296 80.7421 96.296C80.9768 96.296 81.1688 96.2107 81.3181 96.04C81.4675 95.8693 81.5475 95.6347 81.5581 95.336H82.4221C82.4115 95.9013 82.2621 96.36 81.9741 96.712C81.6968 97.064 81.3235 97.24 80.8541 97.24ZM89.7286 107.096C88.8753 107.096 88.118 106.909 87.4566 106.536C86.7953 106.163 86.2726 105.651 85.8886 105C85.5046 104.339 85.3126 103.592 85.3126 102.76C85.3126 101.917 85.5046 101.171 85.8886 100.52C86.2726 99.8693 86.7953 99.3627 87.4566 99C88.118 98.6267 88.8753 98.44 89.7286 98.44C90.5713 98.44 91.3233 98.6267 91.9846 99C92.6566 99.3627 93.1793 99.8693 93.5526 100.52C93.9366 101.16 94.1286 101.907 94.1286 102.76C94.1286 103.603 93.9366 104.349 93.5526 105C93.1793 105.651 92.6566 106.163 91.9846 106.536C91.3233 106.909 90.5713 107.096 89.7286 107.096ZM89.7286 105.752C90.2726 105.752 90.758 105.629 91.1846 105.384C91.622 105.139 91.9633 104.792 92.2086 104.344C92.454 103.885 92.5766 103.357 92.5766 102.76C92.5766 102.152 92.454 101.629 92.2086 101.192C91.9633 100.744 91.622 100.397 91.1846 100.152C90.758 99.9067 90.2726 99.784 89.7286 99.784C89.1846 99.784 88.6993 99.9067 88.2726 100.152C87.846 100.397 87.5046 100.744 87.2486 101.192C86.9926 101.629 86.8646 102.152 86.8646 102.76C86.8646 103.357 86.9926 103.885 87.2486 104.344C87.5046 104.792 87.846 105.139 88.2726 105.384C88.6993 105.629 89.1846 105.752 89.7286 105.752Z" fill="black" fill-opacity="0.8"/>
<path fill-rule="evenodd" clip-rule="evenodd" d="M21 31.75C15.0629 31.75 10.25 26.9371 10.25 21C10.25 15.0629 15.0629 10.25 21 10.25C26.9371 10.25 31.75 15.0629 31.75 21C31.75 26.9371 26.9371 31.75 21 31.75ZM25.48 18.3776C25.9645 18.1126 26.1425 17.5049 25.8775 17.0204C25.6125 16.5358 25.0049 16.3578 24.5204 16.6228C22.6917 17.6229 21.1796 19.5529 20.1629 21.1096C19.7872 21.685 19.4662 22.2297 19.2094 22.6911C18.9698 22.4587 18.7326 22.257 18.5204 22.0892C18.2427 21.8697 17.9928 21.6965 17.8106 21.5772L17.4956 21.3815C17.0159 21.1079 16.4051 21.275 16.1315 21.7548C15.858 22.2344 16.0249 22.8449 16.5044 23.1187L16.7147 23.2502C16.8575 23.3437 17.0576 23.4823 17.28 23.6581C17.7375 24.0198 18.2313 24.494 18.542 25.0135C18.7327 25.3323 19.0844 25.5191 19.4553 25.4987C19.8261 25.4782 20.1551 25.2536 20.3096 24.9159L20.4079 24.7105C20.4756 24.5721 20.577 24.3697 20.709 24.1204C20.9735 23.6207 21.3581 22.9372 21.8374 22.2032C22.8208 20.6975 24.1086 19.1275 25.48 18.3776Z" fill="#F3541C"/>
</svg>
