<svg width="528" height="160" viewBox="0 0 528 160" fill="none" xmlns="http://www.w3.org/2000/svg">
<rect x="0.5" y="0.5" width="527" height="159" rx="7.5" fill="white"/>
<rect x="0.5" y="0.5" width="527" height="159" rx="7.5" stroke="#D6D3D1" stroke-dasharray="8 8"/>
<path d="M274.955 46.0221C274.97 46.022 274.985 46.022 275 46.022C279.971 46.022 284 50.0588 284 55.0386C284 59.6796 280.5 63.5016 276 64M274.955 46.0221C274.985 45.6921 275 45.3579 275 45.0202C275 38.9339 270.075 34 264 34C258.246 34 253.525 38.4253 253.041 44.0638M274.955 46.0221C274.751 48.2952 273.857 50.3692 272.486 52.033M253.041 44.0638C247.968 44.5475 244 48.8278 244 54.0366C244 58.8834 247.436 62.9264 252 63.8546M253.041 44.0638C253.357 44.0337 253.676 44.0183 254 44.0183C256.252 44.0183 258.329 44.7639 260.001 46.022" stroke="#D6D3D1" stroke-width="3" stroke-linecap="round" stroke-linejoin="round"/>
<path d="M264 54V70M264 54C262.6 54 259.983 57.9886 259 59M264 54C265.4 54 268.017 57.9886 269 59" stroke="#D6D3D1" stroke-width="3" stroke-linecap="round" stroke-linejoin="round"/>
<path d="M195.586 96.416C195.586 95.328 195.832 94.352 196.322 93.488C196.813 92.6133 197.48 91.9307 198.322 91.44C199.176 90.9493 200.12 90.704 201.154 90.704C202.37 90.704 203.432 90.9973 204.338 91.584C205.245 92.1707 205.906 93.0027 206.322 94.08H204.578C204.269 93.408 203.821 92.8907 203.234 92.528C202.658 92.1653 201.965 91.984 201.154 91.984C200.376 91.984 199.677 92.1653 199.058 92.528C198.44 92.8907 197.954 93.408 197.602 94.08C197.25 94.7413 197.074 95.52 197.074 96.416C197.074 97.3013 197.25 98.08 197.602 98.752C197.954 99.4133 198.44 99.9253 199.058 100.288C199.677 100.651 200.376 100.832 201.154 100.832C201.965 100.832 202.658 100.656 203.234 100.304C203.821 99.9413 204.269 99.424 204.578 98.752H206.322C205.906 99.8187 205.245 100.645 204.338 101.232C203.432 101.808 202.37 102.096 201.154 102.096C200.12 102.096 199.176 101.856 198.322 101.376C197.48 100.885 196.813 100.208 196.322 99.344C195.832 98.48 195.586 97.504 195.586 96.416ZM209.946 90.16V102H208.49V90.16H209.946ZM213.179 91.808C212.902 91.808 212.667 91.712 212.475 91.52C212.283 91.328 212.187 91.0933 212.187 90.816C212.187 90.5387 212.283 90.304 212.475 90.112C212.667 89.92 212.902 89.824 213.179 89.824C213.446 89.824 213.67 89.92 213.851 90.112C214.043 90.304 214.139 90.5387 214.139 90.816C214.139 91.0933 214.043 91.328 213.851 91.52C213.67 91.712 213.446 91.808 213.179 91.808ZM213.883 93.232V102H212.427V93.232H213.883ZM215.821 97.584C215.821 96.688 216.002 95.904 216.365 95.232C216.727 94.5493 217.223 94.0213 217.853 93.648C218.493 93.2747 219.207 93.088 219.997 93.088C220.754 93.088 221.415 93.2587 221.981 93.6C222.557 93.9307 222.978 94.3413 223.245 94.832V93.232H224.717V106.16H223.245V100.384C222.967 100.875 222.541 101.291 221.965 101.632C221.389 101.973 220.717 102.144 219.949 102.144C219.181 102.144 218.482 101.952 217.853 101.568C217.223 101.184 216.727 100.645 216.365 99.952C216.002 99.2587 215.821 98.4693 215.821 97.584ZM223.245 97.6C223.245 96.9387 223.111 96.3627 222.845 95.872C222.578 95.3813 222.215 95.008 221.757 94.752C221.309 94.4853 220.813 94.352 220.269 94.352C219.725 94.352 219.229 94.48 218.781 94.736C218.333 94.992 217.975 95.3653 217.709 95.856C217.442 96.3467 217.309 96.9227 217.309 97.584C217.309 98.256 217.442 98.8427 217.709 99.344C217.975 99.8347 218.333 100.213 218.781 100.48C219.229 100.736 219.725 100.864 220.269 100.864C220.813 100.864 221.309 100.736 221.757 100.48C222.215 100.213 222.578 99.8347 222.845 99.344C223.111 98.8427 223.245 98.2613 223.245 97.6ZM234.953 93.232V102H233.497V100.704C233.22 101.152 232.831 101.504 232.329 101.76C231.839 102.005 231.295 102.128 230.697 102.128C230.015 102.128 229.401 101.989 228.857 101.712C228.313 101.424 227.881 100.997 227.561 100.432C227.252 99.8667 227.097 99.1787 227.097 98.368V93.232H228.537V98.176C228.537 99.04 228.756 99.7067 229.193 100.176C229.631 100.635 230.228 100.864 230.985 100.864C231.764 100.864 232.377 100.624 232.825 100.144C233.273 99.664 233.497 98.9653 233.497 98.048V93.232H234.953ZM245.412 97.28C245.412 97.5573 245.396 97.8507 245.364 98.16H238.356C238.409 99.024 238.702 99.7013 239.236 100.192C239.78 100.672 240.436 100.912 241.204 100.912C241.833 100.912 242.356 100.768 242.772 100.48C243.198 100.181 243.497 99.7867 243.668 99.296H245.236C245.001 100.139 244.532 100.827 243.828 101.36C243.124 101.883 242.249 102.144 241.204 102.144C240.372 102.144 239.625 101.957 238.964 101.584C238.313 101.211 237.801 100.683 237.428 100C237.054 99.3067 236.868 98.5067 236.868 97.6C236.868 96.6933 237.049 95.8987 237.412 95.216C237.774 94.5333 238.281 94.0107 238.932 93.648C239.593 93.2747 240.35 93.088 241.204 93.088C242.036 93.088 242.772 93.2693 243.412 93.632C244.052 93.9947 244.542 94.496 244.884 95.136C245.236 95.7653 245.412 96.48 245.412 97.28ZM243.908 96.976C243.908 96.4213 243.785 95.9467 243.54 95.552C243.294 95.1467 242.958 94.8427 242.532 94.64C242.116 94.4267 241.652 94.32 241.14 94.32C240.404 94.32 239.774 94.5547 239.252 95.024C238.74 95.4933 238.446 96.144 238.372 96.976H243.908ZM251.055 97.584C251.055 96.688 251.237 95.904 251.599 95.232C251.962 94.5493 252.458 94.0213 253.087 93.648C253.727 93.2747 254.437 93.088 255.215 93.088C255.983 93.088 256.65 93.2533 257.215 93.584C257.781 93.9147 258.202 94.3307 258.479 94.832V93.232H259.951V102H258.479V100.368C258.191 100.88 257.759 101.307 257.183 101.648C256.618 101.979 255.957 102.144 255.199 102.144C254.421 102.144 253.717 101.952 253.087 101.568C252.458 101.184 251.962 100.645 251.599 99.952C251.237 99.2587 251.055 98.4693 251.055 97.584ZM258.479 97.6C258.479 96.9387 258.346 96.3627 258.079 95.872C257.813 95.3813 257.45 95.008 256.991 94.752C256.543 94.4853 256.047 94.352 255.503 94.352C254.959 94.352 254.463 94.48 254.015 94.736C253.567 94.992 253.21 95.3653 252.943 95.856C252.677 96.3467 252.543 96.9227 252.543 97.584C252.543 98.256 252.677 98.8427 252.943 99.344C253.21 99.8347 253.567 100.213 254.015 100.48C254.463 100.736 254.959 100.864 255.503 100.864C256.047 100.864 256.543 100.736 256.991 100.48C257.45 100.213 257.813 99.8347 258.079 99.344C258.346 98.8427 258.479 98.2613 258.479 97.6ZM261.868 97.584C261.868 96.688 262.049 95.904 262.412 95.232C262.774 94.5493 263.27 94.0213 263.9 93.648C264.54 93.2747 265.254 93.088 266.044 93.088C266.801 93.088 267.462 93.2587 268.028 93.6C268.604 93.9307 269.025 94.3413 269.292 94.832V93.232H270.764V106.16H269.292V100.384C269.014 100.875 268.588 101.291 268.012 101.632C267.436 101.973 266.764 102.144 265.996 102.144C265.228 102.144 264.529 101.952 263.9 101.568C263.27 101.184 262.774 100.645 262.412 99.952C262.049 99.2587 261.868 98.4693 261.868 97.584ZM269.292 97.6C269.292 96.9387 269.158 96.3627 268.892 95.872C268.625 95.3813 268.262 95.008 267.804 94.752C267.356 94.4853 266.86 94.352 266.316 94.352C265.772 94.352 265.276 94.48 264.828 94.736C264.38 94.992 264.022 95.3653 263.756 95.856C263.489 96.3467 263.356 96.9227 263.356 97.584C263.356 98.256 263.489 98.8427 263.756 99.344C264.022 99.8347 264.38 100.213 264.828 100.48C265.276 100.736 265.772 100.864 266.316 100.864C266.86 100.864 267.356 100.736 267.804 100.48C268.262 100.213 268.625 99.8347 268.892 99.344C269.158 98.8427 269.292 98.2613 269.292 97.6ZM281 93.232V102H279.544V100.704C279.267 101.152 278.878 101.504 278.376 101.76C277.886 102.005 277.342 102.128 276.744 102.128C276.062 102.128 275.448 101.989 274.904 101.712C274.36 101.424 273.928 100.997 273.608 100.432C273.299 99.8667 273.144 99.1787 273.144 98.368V93.232H274.584V98.176C274.584 99.04 274.803 99.7067 275.24 100.176C275.678 100.635 276.275 100.864 277.032 100.864C277.811 100.864 278.424 100.624 278.872 100.144C279.32 99.664 279.544 98.9653 279.544 98.048V93.232H281ZM284.211 91.808C283.933 91.808 283.699 91.712 283.507 91.52C283.315 91.328 283.219 91.0933 283.219 90.816C283.219 90.5387 283.315 90.304 283.507 90.112C283.699 89.92 283.933 89.824 284.211 89.824C284.477 89.824 284.701 89.92 284.883 90.112C285.075 90.304 285.171 90.5387 285.171 90.816C285.171 91.0933 285.075 91.328 284.883 91.52C284.701 91.712 284.477 91.808 284.211 91.808ZM284.915 93.232V102H283.459V93.232H284.915ZM293.118 94.848C293.406 94.3467 293.832 93.9307 294.398 93.6C294.974 93.2587 295.64 93.088 296.398 93.088C297.176 93.088 297.88 93.2747 298.51 93.648C299.15 94.0213 299.651 94.5493 300.014 95.232C300.376 95.904 300.558 96.688 300.558 97.584C300.558 98.4693 300.376 99.2587 300.014 99.952C299.651 100.645 299.15 101.184 298.51 101.568C297.88 101.952 297.176 102.144 296.398 102.144C295.651 102.144 294.99 101.979 294.414 101.648C293.848 101.307 293.416 100.885 293.118 100.384V106.16H291.662V93.232H293.118V94.848ZM299.07 97.584C299.07 96.9227 298.936 96.3467 298.67 95.856C298.403 95.3653 298.04 94.992 297.582 94.736C297.134 94.48 296.638 94.352 296.094 94.352C295.56 94.352 295.064 94.4853 294.606 94.752C294.158 95.008 293.795 95.3867 293.518 95.888C293.251 96.3787 293.118 96.9493 293.118 97.6C293.118 98.2613 293.251 98.8427 293.518 99.344C293.795 99.8347 294.158 100.213 294.606 100.48C295.064 100.736 295.56 100.864 296.094 100.864C296.638 100.864 297.134 100.736 297.582 100.48C298.04 100.213 298.403 99.8347 298.67 99.344C298.936 98.8427 299.07 98.256 299.07 97.584ZM301.93 97.584C301.93 96.688 302.112 95.904 302.474 95.232C302.837 94.5493 303.333 94.0213 303.962 93.648C304.602 93.2747 305.312 93.088 306.09 93.088C306.858 93.088 307.525 93.2533 308.09 93.584C308.656 93.9147 309.077 94.3307 309.354 94.832V93.232H310.826V102H309.354V100.368C309.066 100.88 308.634 101.307 308.058 101.648C307.493 101.979 306.832 102.144 306.074 102.144C305.296 102.144 304.592 101.952 303.962 101.568C303.333 101.184 302.837 100.645 302.474 99.952C302.112 99.2587 301.93 98.4693 301.93 97.584ZM309.354 97.6C309.354 96.9387 309.221 96.3627 308.954 95.872C308.688 95.3813 308.325 95.008 307.866 94.752C307.418 94.4853 306.922 94.352 306.378 94.352C305.834 94.352 305.338 94.48 304.89 94.736C304.442 94.992 304.085 95.3653 303.818 95.856C303.552 96.3467 303.418 96.9227 303.418 97.584C303.418 98.256 303.552 98.8427 303.818 99.344C304.085 99.8347 304.442 100.213 304.89 100.48C305.338 100.736 305.834 100.864 306.378 100.864C306.922 100.864 307.418 100.736 307.866 100.48C308.325 100.213 308.688 99.8347 308.954 99.344C309.221 98.8427 309.354 98.2613 309.354 97.6ZM314.743 94.656C314.999 94.1547 315.361 93.7653 315.831 93.488C316.311 93.2107 316.892 93.072 317.575 93.072V94.576H317.191C315.559 94.576 314.743 95.4613 314.743 97.232V102H313.287V93.232H314.743V94.656ZM318.711 97.584C318.711 96.688 318.893 95.904 319.255 95.232C319.618 94.5493 320.114 94.0213 320.743 93.648C321.383 93.2747 322.093 93.088 322.871 93.088C323.639 93.088 324.306 93.2533 324.871 93.584C325.437 93.9147 325.858 94.3307 326.135 94.832V93.232H327.607V102H326.135V100.368C325.847 100.88 325.415 101.307 324.839 101.648C324.274 101.979 323.613 102.144 322.855 102.144C322.077 102.144 321.373 101.952 320.743 101.568C320.114 101.184 319.618 100.645 319.255 99.952C318.893 99.2587 318.711 98.4693 318.711 97.584ZM326.135 97.6C326.135 96.9387 326.002 96.3627 325.735 95.872C325.469 95.3813 325.106 95.008 324.647 94.752C324.199 94.4853 323.703 94.352 323.159 94.352C322.615 94.352 322.119 94.48 321.671 94.736C321.223 94.992 320.866 95.3653 320.599 95.856C320.333 96.3467 320.199 96.9227 320.199 97.584C320.199 98.256 320.333 98.8427 320.599 99.344C320.866 99.8347 321.223 100.213 321.671 100.48C322.119 100.736 322.615 100.864 323.159 100.864C323.703 100.864 324.199 100.736 324.647 100.48C325.106 100.213 325.469 99.8347 325.735 99.344C326.002 98.8427 326.135 98.2613 326.135 97.6ZM190.016 126.144C189.344 126.144 188.741 126.032 188.208 125.808C187.674 125.573 187.253 125.253 186.944 124.848C186.634 124.432 186.464 123.957 186.432 123.424H187.936C187.978 123.861 188.181 124.219 188.544 124.496C188.917 124.773 189.402 124.912 190 124.912C190.554 124.912 190.992 124.789 191.312 124.544C191.632 124.299 191.792 123.989 191.792 123.616C191.792 123.232 191.621 122.949 191.28 122.768C190.938 122.576 190.41 122.389 189.696 122.208C189.045 122.037 188.512 121.867 188.096 121.696C187.69 121.515 187.338 121.253 187.04 120.912C186.752 120.56 186.608 120.101 186.608 119.536C186.608 119.088 186.741 118.677 187.008 118.304C187.274 117.931 187.653 117.637 188.144 117.424C188.634 117.2 189.194 117.088 189.824 117.088C190.794 117.088 191.578 117.333 192.176 117.824C192.773 118.315 193.093 118.987 193.136 119.84H191.68C191.648 119.381 191.461 119.013 191.12 118.736C190.789 118.459 190.341 118.32 189.776 118.32C189.253 118.32 188.837 118.432 188.528 118.656C188.218 118.88 188.064 119.173 188.064 119.536C188.064 119.824 188.154 120.064 188.336 120.256C188.528 120.437 188.762 120.587 189.04 120.704C189.328 120.811 189.722 120.933 190.224 121.072C190.853 121.243 191.365 121.413 191.76 121.584C192.154 121.744 192.49 121.989 192.768 122.32C193.056 122.651 193.205 123.083 193.216 123.616C193.216 124.096 193.082 124.528 192.816 124.912C192.549 125.296 192.17 125.6 191.68 125.824C191.2 126.037 190.645 126.144 190.016 126.144ZM203.271 121.28C203.271 121.557 203.255 121.851 203.223 122.16H196.215C196.268 123.024 196.562 123.701 197.095 124.192C197.639 124.672 198.295 124.912 199.063 124.912C199.692 124.912 200.215 124.768 200.631 124.48C201.058 124.181 201.356 123.787 201.527 123.296H203.095C202.86 124.139 202.391 124.827 201.687 125.36C200.983 125.883 200.108 126.144 199.063 126.144C198.231 126.144 197.484 125.957 196.823 125.584C196.172 125.211 195.66 124.683 195.287 124C194.914 123.307 194.727 122.507 194.727 121.6C194.727 120.693 194.908 119.899 195.271 119.216C195.634 118.533 196.14 118.011 196.791 117.648C197.452 117.275 198.21 117.088 199.063 117.088C199.895 117.088 200.631 117.269 201.271 117.632C201.911 117.995 202.402 118.496 202.743 119.136C203.095 119.765 203.271 120.48 203.271 121.28ZM201.767 120.976C201.767 120.421 201.644 119.947 201.399 119.552C201.154 119.147 200.818 118.843 200.391 118.64C199.975 118.427 199.511 118.32 198.999 118.32C198.263 118.32 197.634 118.555 197.111 119.024C196.599 119.493 196.306 120.144 196.231 120.976H201.767ZM206.649 114.16V126H205.193V114.16H206.649ZM217.13 121.28C217.13 121.557 217.114 121.851 217.082 122.16H210.074C210.128 123.024 210.421 123.701 210.954 124.192C211.498 124.672 212.154 124.912 212.922 124.912C213.552 124.912 214.074 124.768 214.49 124.48C214.917 124.181 215.216 123.787 215.386 123.296H216.954C216.72 124.139 216.25 124.827 215.546 125.36C214.842 125.883 213.968 126.144 212.922 126.144C212.09 126.144 211.344 125.957 210.682 125.584C210.032 125.211 209.52 124.683 209.146 124C208.773 123.307 208.586 122.507 208.586 121.6C208.586 120.693 208.768 119.899 209.13 119.216C209.493 118.533 210 118.011 210.65 117.648C211.312 117.275 212.069 117.088 212.922 117.088C213.754 117.088 214.49 117.269 215.13 117.632C215.77 117.995 216.261 118.496 216.602 119.136C216.954 119.765 217.13 120.48 217.13 121.28ZM215.626 120.976C215.626 120.421 215.504 119.947 215.258 119.552C215.013 119.147 214.677 118.843 214.25 118.64C213.834 118.427 213.37 118.32 212.858 118.32C212.122 118.32 211.493 118.555 210.97 119.024C210.458 119.493 210.165 120.144 210.09 120.976H215.626ZM218.508 121.6C218.508 120.693 218.69 119.904 219.052 119.232C219.415 118.549 219.916 118.021 220.556 117.648C221.207 117.275 221.948 117.088 222.78 117.088C223.858 117.088 224.743 117.349 225.436 117.872C226.14 118.395 226.604 119.12 226.828 120.048H225.26C225.111 119.515 224.818 119.093 224.38 118.784C223.954 118.475 223.42 118.32 222.78 118.32C221.948 118.32 221.276 118.608 220.764 119.184C220.252 119.749 219.996 120.555 219.996 121.6C219.996 122.656 220.252 123.472 220.764 124.048C221.276 124.624 221.948 124.912 222.78 124.912C223.42 124.912 223.954 124.763 224.38 124.464C224.807 124.165 225.1 123.739 225.26 123.184H226.828C226.594 124.08 226.124 124.8 225.42 125.344C224.716 125.877 223.836 126.144 222.78 126.144C221.948 126.144 221.207 125.957 220.556 125.584C219.916 125.211 219.415 124.683 219.052 124C218.69 123.317 218.508 122.517 218.508 121.6ZM229.523 115.808C229.246 115.808 229.011 115.712 228.819 115.52C228.627 115.328 228.531 115.093 228.531 114.816C228.531 114.539 228.627 114.304 228.819 114.112C229.011 113.92 229.246 113.824 229.523 113.824C229.79 113.824 230.014 113.92 230.195 114.112C230.387 114.304 230.483 114.539 230.483 114.816C230.483 115.093 230.387 115.328 230.195 115.52C230.014 115.712 229.79 115.808 229.523 115.808ZM230.227 117.232V126H228.771V117.232H230.227ZM236.533 126.144C235.711 126.144 234.965 125.957 234.293 125.584C233.631 125.211 233.109 124.683 232.725 124C232.351 123.307 232.165 122.507 232.165 121.6C232.165 120.704 232.357 119.915 232.741 119.232C233.135 118.539 233.669 118.011 234.341 117.648C235.013 117.275 235.765 117.088 236.597 117.088C237.429 117.088 238.181 117.275 238.853 117.648C239.525 118.011 240.053 118.533 240.437 119.216C240.831 119.899 241.029 120.693 241.029 121.6C241.029 122.507 240.826 123.307 240.421 124C240.026 124.683 239.487 125.211 238.805 125.584C238.122 125.957 237.365 126.144 236.533 126.144ZM236.533 124.864C237.055 124.864 237.546 124.741 238.005 124.496C238.463 124.251 238.831 123.883 239.109 123.392C239.397 122.901 239.541 122.304 239.541 121.6C239.541 120.896 239.402 120.299 239.125 119.808C238.847 119.317 238.485 118.955 238.037 118.72C237.589 118.475 237.103 118.352 236.581 118.352C236.047 118.352 235.557 118.475 235.109 118.72C234.671 118.955 234.319 119.317 234.053 119.808C233.786 120.299 233.653 120.896 233.653 121.6C233.653 122.315 233.781 122.917 234.037 123.408C234.303 123.899 234.655 124.267 235.093 124.512C235.53 124.747 236.01 124.864 236.533 124.864ZM247.215 117.072C248.282 117.072 249.146 117.397 249.807 118.048C250.468 118.688 250.799 119.616 250.799 120.832V126H249.359V121.04C249.359 120.165 249.14 119.499 248.703 119.04C248.266 118.571 247.668 118.336 246.911 118.336C246.143 118.336 245.53 118.576 245.071 119.056C244.623 119.536 244.399 120.235 244.399 121.152V126H242.943V117.232H244.399V118.48C244.687 118.032 245.076 117.685 245.567 117.44C246.068 117.195 246.618 117.072 247.215 117.072ZM252.633 121.584C252.633 120.688 252.815 119.904 253.177 119.232C253.54 118.549 254.036 118.021 254.665 117.648C255.305 117.275 256.015 117.088 256.793 117.088C257.561 117.088 258.228 117.253 258.793 117.584C259.359 117.915 259.78 118.331 260.057 118.832V117.232H261.529V126H260.057V124.368C259.769 124.88 259.337 125.307 258.761 125.648C258.196 125.979 257.535 126.144 256.777 126.144C255.999 126.144 255.295 125.952 254.665 125.568C254.036 125.184 253.54 124.645 253.177 123.952C252.815 123.259 252.633 122.469 252.633 121.584ZM260.057 121.6C260.057 120.939 259.924 120.363 259.657 119.872C259.391 119.381 259.028 119.008 258.569 118.752C258.121 118.485 257.625 118.352 257.081 118.352C256.537 118.352 256.041 118.48 255.593 118.736C255.145 118.992 254.788 119.365 254.521 119.856C254.255 120.347 254.121 120.923 254.121 121.584C254.121 122.256 254.255 122.843 254.521 123.344C254.788 123.835 255.145 124.213 255.593 124.48C256.041 124.736 256.537 124.864 257.081 124.864C257.625 124.864 258.121 124.736 258.569 124.48C259.028 124.213 259.391 123.835 259.657 123.344C259.924 122.843 260.057 122.261 260.057 121.6ZM265.446 118.656C265.702 118.155 266.064 117.765 266.534 117.488C267.014 117.211 267.595 117.072 268.278 117.072V118.576H267.894C266.262 118.576 265.446 119.461 265.446 121.232V126H263.99V117.232H265.446V118.656ZM273.68 121.584C273.68 120.688 273.862 119.904 274.224 119.232C274.587 118.549 275.083 118.021 275.712 117.648C276.352 117.275 277.062 117.088 277.84 117.088C278.608 117.088 279.275 117.253 279.84 117.584C280.406 117.915 280.827 118.331 281.104 118.832V117.232H282.576V126H281.104V124.368C280.816 124.88 280.384 125.307 279.808 125.648C279.243 125.979 278.582 126.144 277.824 126.144C277.046 126.144 276.342 125.952 275.712 125.568C275.083 125.184 274.587 124.645 274.224 123.952C273.862 123.259 273.68 122.469 273.68 121.584ZM281.104 121.6C281.104 120.939 280.971 120.363 280.704 119.872C280.438 119.381 280.075 119.008 279.616 118.752C279.168 118.485 278.672 118.352 278.128 118.352C277.584 118.352 277.088 118.48 276.64 118.736C276.192 118.992 275.835 119.365 275.568 119.856C275.302 120.347 275.168 120.923 275.168 121.584C275.168 122.256 275.302 122.843 275.568 123.344C275.835 123.835 276.192 124.213 276.64 124.48C277.088 124.736 277.584 124.864 278.128 124.864C278.672 124.864 279.168 124.736 279.616 124.48C280.075 124.213 280.438 123.835 280.704 123.344C280.971 122.843 281.104 122.261 281.104 121.6ZM286.493 118.656C286.749 118.155 287.111 117.765 287.581 117.488C288.061 117.211 288.642 117.072 289.325 117.072V118.576H288.941C287.309 118.576 286.493 119.461 286.493 121.232V126H285.037V117.232H286.493V118.656ZM290.461 121.584C290.461 120.688 290.643 119.904 291.005 119.232C291.368 118.549 291.864 118.021 292.493 117.648C293.133 117.275 293.848 117.088 294.637 117.088C295.395 117.088 296.056 117.259 296.621 117.6C297.197 117.931 297.619 118.341 297.885 118.832V117.232H299.357V130.16H297.885V124.384C297.608 124.875 297.181 125.291 296.605 125.632C296.029 125.973 295.357 126.144 294.589 126.144C293.821 126.144 293.123 125.952 292.493 125.568C291.864 125.184 291.368 124.645 291.005 123.952C290.643 123.259 290.461 122.469 290.461 121.584ZM297.885 121.6C297.885 120.939 297.752 120.363 297.485 119.872C297.219 119.381 296.856 119.008 296.397 118.752C295.949 118.485 295.453 118.352 294.909 118.352C294.365 118.352 293.869 118.48 293.421 118.736C292.973 118.992 292.616 119.365 292.349 119.856C292.083 120.347 291.949 120.923 291.949 121.584C291.949 122.256 292.083 122.843 292.349 123.344C292.616 123.835 292.973 124.213 293.421 124.48C293.869 124.736 294.365 124.864 294.909 124.864C295.453 124.864 295.949 124.736 296.397 124.48C296.856 124.213 297.219 123.835 297.485 123.344C297.752 122.843 297.885 122.261 297.885 121.6ZM309.594 117.232V126H308.138V124.704C307.861 125.152 307.471 125.504 306.97 125.76C306.479 126.005 305.935 126.128 305.338 126.128C304.655 126.128 304.042 125.989 303.498 125.712C302.954 125.424 302.522 124.997 302.202 124.432C301.893 123.867 301.738 123.179 301.738 122.368V117.232H303.178V122.176C303.178 123.04 303.397 123.707 303.834 124.176C304.271 124.635 304.869 124.864 305.626 124.864C306.405 124.864 307.018 124.624 307.466 124.144C307.914 123.664 308.138 122.965 308.138 122.048V117.232H309.594ZM312.804 115.808C312.527 115.808 312.292 115.712 312.1 115.52C311.908 115.328 311.812 115.093 311.812 114.816C311.812 114.539 311.908 114.304 312.1 114.112C312.292 113.92 312.527 113.824 312.804 113.824C313.071 113.824 313.295 113.92 313.476 114.112C313.668 114.304 313.764 114.539 313.764 114.816C313.764 115.093 313.668 115.328 313.476 115.52C313.295 115.712 313.071 115.808 312.804 115.808ZM313.508 117.232V126H312.052V117.232H313.508ZM319.254 124.656L321.974 117.232H323.526L320.086 126H318.39L314.95 117.232H316.518L319.254 124.656ZM328.783 126.144C327.961 126.144 327.215 125.957 326.543 125.584C325.881 125.211 325.359 124.683 324.975 124C324.601 123.307 324.415 122.507 324.415 121.6C324.415 120.704 324.607 119.915 324.991 119.232C325.385 118.539 325.919 118.011 326.591 117.648C327.263 117.275 328.015 117.088 328.847 117.088C329.679 117.088 330.431 117.275 331.103 117.648C331.775 118.011 332.303 118.533 332.687 119.216C333.081 119.899 333.279 120.693 333.279 121.6C333.279 122.507 333.076 123.307 332.671 124C332.276 124.683 331.737 125.211 331.055 125.584C330.372 125.957 329.615 126.144 328.783 126.144ZM328.783 124.864C329.305 124.864 329.796 124.741 330.255 124.496C330.713 124.251 331.081 123.883 331.359 123.392C331.647 122.901 331.791 122.304 331.791 121.6C331.791 120.896 331.652 120.299 331.375 119.808C331.097 119.317 330.735 118.955 330.287 118.72C329.839 118.475 329.353 118.352 328.831 118.352C328.297 118.352 327.807 118.475 327.359 118.72C326.921 118.955 326.569 119.317 326.303 119.808C326.036 120.299 325.903 120.896 325.903 121.6C325.903 122.315 326.031 122.917 326.287 123.408C326.553 123.899 326.905 124.267 327.343 124.512C327.78 124.747 328.26 124.864 328.783 124.864ZM338.297 126.144C337.625 126.144 337.022 126.032 336.489 125.808C335.956 125.573 335.534 125.253 335.225 124.848C334.916 124.432 334.745 123.957 334.713 123.424H336.217C336.26 123.861 336.462 124.219 336.825 124.496C337.198 124.773 337.684 124.912 338.281 124.912C338.836 124.912 339.273 124.789 339.593 124.544C339.913 124.299 340.073 123.989 340.073 123.616C340.073 123.232 339.902 122.949 339.561 122.768C339.22 122.576 338.692 122.389 337.977 122.208C337.326 122.037 336.793 121.867 336.377 121.696C335.972 121.515 335.62 121.253 335.321 120.912C335.033 120.56 334.889 120.101 334.889 119.536C334.889 119.088 335.022 118.677 335.289 118.304C335.556 117.931 335.934 117.637 336.425 117.424C336.916 117.2 337.476 117.088 338.105 117.088C339.076 117.088 339.86 117.333 340.457 117.824C341.054 118.315 341.374 118.987 341.417 119.84H339.961C339.929 119.381 339.742 119.013 339.401 118.736C339.07 118.459 338.622 118.32 338.057 118.32C337.534 118.32 337.118 118.432 336.809 118.656C336.5 118.88 336.345 119.173 336.345 119.536C336.345 119.824 336.436 120.064 336.617 120.256C336.809 120.437 337.044 120.587 337.321 120.704C337.609 120.811 338.004 120.933 338.505 121.072C339.134 121.243 339.646 121.413 340.041 121.584C340.436 121.744 340.772 121.989 341.049 122.32C341.337 122.651 341.486 123.083 341.497 123.616C341.497 124.096 341.364 124.528 341.097 124.912C340.83 125.296 340.452 125.6 339.961 125.824C339.481 126.037 338.926 126.144 338.297 126.144Z" fill="#A8A29E"/>
</svg>
