<svg width="88" height="19" viewBox="0 0 88 19" fill="none" xmlns="http://www.w3.org/2000/svg">
<path d="M-0.00799996 10.096C-0.00799996 8.26133 0.290667 6.832 0.888 5.808C1.48533 4.77333 2.53067 4.256 4.024 4.256C5.50667 4.256 6.54667 4.77333 7.144 5.808C7.74133 6.832 8.04 8.26133 8.04 10.096C8.04 11.9627 7.74133 13.4133 7.144 14.448C6.54667 15.4827 5.50667 16 4.024 16C2.53067 16 1.48533 15.4827 0.888 14.448C0.290667 13.4133 -0.00799996 11.9627 -0.00799996 10.096ZM6.6 10.096C6.6 9.168 6.536 8.384 6.408 7.744C6.29067 7.09333 6.04 6.57067 5.656 6.176C5.28267 5.78133 4.73867 5.584 4.024 5.584C3.29867 5.584 2.744 5.78133 2.36 6.176C1.98667 6.57067 1.736 7.09333 1.608 7.744C1.49067 8.384 1.432 9.168 1.432 10.096C1.432 11.056 1.49067 11.8613 1.608 12.512C1.736 13.1627 1.98667 13.6853 2.36 14.08C2.744 14.4747 3.29867 14.672 4.024 14.672C4.73867 14.672 5.28267 14.4747 5.656 14.08C6.04 13.6853 6.29067 13.1627 6.408 12.512C6.536 11.8613 6.6 11.056 6.6 10.096ZM16.4869 7.184C16.2522 6 15.5215 5.408 14.2949 5.408C13.3455 5.408 12.6362 5.776 12.1669 6.512C11.6975 7.23733 11.4682 8.43733 11.4789 10.112C11.7242 9.55733 12.1295 9.12533 12.6949 8.816C13.2709 8.496 13.9109 8.336 14.6149 8.336C15.7135 8.336 16.5882 8.67733 17.2389 9.36C17.9002 10.0427 18.2309 10.9867 18.2309 12.192C18.2309 12.9173 18.0869 13.568 17.7989 14.144C17.5215 14.72 17.0949 15.1787 16.5189 15.52C15.9535 15.8613 15.2655 16.032 14.4549 16.032C13.3562 16.032 12.4975 15.7867 11.8789 15.296C11.2602 14.8053 10.8282 14.128 10.5829 13.264C10.3375 12.4 10.2149 11.3333 10.2149 10.064C10.2149 6.14933 11.5802 4.192 14.3109 4.192C15.3562 4.192 16.1775 4.47467 16.7749 5.04C17.3722 5.60533 17.7242 6.32 17.8309 7.184H16.4869ZM14.3109 9.568C13.8522 9.568 13.4202 9.664 13.0149 9.856C12.6095 10.0373 12.2789 10.32 12.0229 10.704C11.7775 11.0773 11.6549 11.536 11.6549 12.08C11.6549 12.8907 11.8895 13.552 12.3589 14.064C12.8282 14.5653 13.5002 14.816 14.3749 14.816C15.1215 14.816 15.7135 14.5867 16.1509 14.128C16.5989 13.6587 16.8229 13.0293 16.8229 12.24C16.8229 11.408 16.6095 10.7573 16.1829 10.288C15.7562 9.808 15.1322 9.568 14.3109 9.568ZM25.8751 0.927999L21.4911 18.72H20.0511L24.4191 0.927999H25.8751ZM27.8045 10.096C27.8045 8.26133 28.1032 6.832 28.7005 5.808C29.2978 4.77333 30.3432 4.256 31.8365 4.256C33.3192 4.256 34.3592 4.77333 34.9565 5.808C35.5538 6.832 35.8525 8.26133 35.8525 10.096C35.8525 11.9627 35.5538 13.4133 34.9565 14.448C34.3592 15.4827 33.3192 16 31.8365 16C30.3432 16 29.2978 15.4827 28.7005 14.448C28.1032 13.4133 27.8045 11.9627 27.8045 10.096ZM34.4125 10.096C34.4125 9.168 34.3485 8.384 34.2205 7.744C34.1032 7.09333 33.8525 6.57067 33.4685 6.176C33.0952 5.78133 32.5512 5.584 31.8365 5.584C31.1112 5.584 30.5565 5.78133 30.1725 6.176C29.7992 6.57067 29.5485 7.09333 29.4205 7.744C29.3032 8.384 29.2445 9.168 29.2445 10.096C29.2445 11.056 29.3032 11.8613 29.4205 12.512C29.5485 13.1627 29.7992 13.6853 30.1725 14.08C30.5565 14.4747 31.1112 14.672 31.8365 14.672C32.5512 14.672 33.0952 14.4747 33.4685 14.08C33.8525 13.6853 34.1032 13.1627 34.2205 12.512C34.3485 11.8613 34.4125 11.056 34.4125 10.096ZM45.2274 5.696H39.6114V9.344C39.8567 9.00267 40.2194 8.72533 40.6994 8.512C41.1794 8.288 41.6967 8.176 42.2514 8.176C43.1367 8.176 43.8567 8.36267 44.4114 8.736C44.966 9.09867 45.3607 9.57333 45.5954 10.16C45.8407 10.736 45.9634 11.3493 45.9634 12C45.9634 12.768 45.8194 13.456 45.5314 14.064C45.2434 14.672 44.8007 15.152 44.2034 15.504C43.6167 15.856 42.886 16.032 42.0114 16.032C40.8914 16.032 39.9847 15.744 39.2914 15.168C38.598 14.592 38.1767 13.824 38.0274 12.864H39.4514C39.59 13.472 39.8834 13.9467 40.3314 14.288C40.7794 14.6293 41.3447 14.8 42.0274 14.8C42.87 14.8 43.5047 14.5493 43.9314 14.048C44.358 13.536 44.5714 12.864 44.5714 12.032C44.5714 11.2 44.358 10.56 43.9314 10.112C43.5047 9.65333 42.8754 9.424 42.0434 9.424C41.478 9.424 40.982 9.56267 40.5554 9.84C40.1394 10.1067 39.8354 10.4747 39.6434 10.944H38.2674V4.416H45.2274V5.696ZM53.5783 0.927999L49.1943 18.72H47.7543L52.1223 0.927999H53.5783ZM55.3316 14.832C56.6863 13.744 57.7476 12.8533 58.5156 12.16C59.2836 11.456 59.929 10.7253 60.4516 9.968C60.985 9.2 61.2516 8.448 61.2516 7.712C61.2516 7.01867 61.081 6.47467 60.7396 6.08C60.409 5.67467 59.8703 5.472 59.1236 5.472C58.3983 5.472 57.833 5.70133 57.4276 6.16C57.033 6.608 56.8196 7.21067 56.7876 7.968H55.3796C55.4223 6.77333 55.785 5.85067 56.4676 5.2C57.1503 4.54933 58.0303 4.224 59.1076 4.224C60.2063 4.224 61.0756 4.528 61.7156 5.136C62.3663 5.744 62.6916 6.58133 62.6916 7.648C62.6916 8.53333 62.425 9.39733 61.8916 10.24C61.369 11.072 60.7716 11.808 60.0996 12.448C59.4276 13.0773 58.569 13.8133 57.5236 14.656H63.0276V15.872H55.3316V14.832ZM64.7108 10.096C64.7108 8.26133 65.0094 6.832 65.6068 5.808C66.2041 4.77333 67.2494 4.256 68.7428 4.256C70.2254 4.256 71.2654 4.77333 71.8628 5.808C72.4601 6.832 72.7587 8.26133 72.7587 10.096C72.7587 11.9627 72.4601 13.4133 71.8628 14.448C71.2654 15.4827 70.2254 16 68.7428 16C67.2494 16 66.2041 15.4827 65.6068 14.448C65.0094 13.4133 64.7108 11.9627 64.7108 10.096ZM71.3188 10.096C71.3188 9.168 71.2548 8.384 71.1268 7.744C71.0094 7.09333 70.7588 6.57067 70.3748 6.176C70.0014 5.78133 69.4574 5.584 68.7428 5.584C68.0174 5.584 67.4628 5.78133 67.0788 6.176C66.7054 6.57067 66.4548 7.09333 66.3268 7.744C66.2094 8.384 66.1508 9.168 66.1508 10.096C66.1508 11.056 66.2094 11.8613 66.3268 12.512C66.4548 13.1627 66.7054 13.6853 67.0788 14.08C67.4628 14.4747 68.0174 14.672 68.7428 14.672C69.4574 14.672 70.0014 14.4747 70.3748 14.08C70.7588 13.6853 71.0094 13.1627 71.1268 12.512C71.2548 11.8613 71.3188 11.056 71.3188 10.096ZM74.3736 5.76V4.432H77.3816V16H75.9096V5.76H74.3736ZM81.7546 12.896C81.8613 13.504 82.1066 13.9733 82.4906 14.304C82.8853 14.6347 83.4133 14.8 84.0746 14.8C84.96 14.8 85.6106 14.4533 86.0266 13.76C86.4533 13.0667 86.656 11.8987 86.6346 10.256C86.4106 10.736 86.0373 11.1147 85.5146 11.392C84.992 11.6587 84.4106 11.792 83.7706 11.792C83.056 11.792 82.416 11.648 81.8506 11.36C81.296 11.0613 80.8586 10.6293 80.5386 10.064C80.2186 9.49867 80.0586 8.816 80.0586 8.016C80.0586 6.87467 80.3893 5.95733 81.0506 5.264C81.712 4.56 82.6506 4.208 83.8666 4.208C85.36 4.208 86.4053 4.69333 87.0026 5.664C87.6106 6.63467 87.9146 8.08 87.9146 10C87.9146 11.344 87.792 12.4533 87.5466 13.328C87.312 14.2027 86.9066 14.8693 86.3306 15.328C85.7653 15.7867 84.9866 16.016 83.9946 16.016C82.9066 16.016 82.0586 15.7227 81.4506 15.136C80.8426 14.5493 80.496 13.8027 80.4106 12.896H81.7546ZM84.0106 10.56C84.7253 10.56 85.312 10.3413 85.7706 9.904C86.2293 9.456 86.4586 8.85333 86.4586 8.096C86.4586 7.296 86.2346 6.65067 85.7866 6.16C85.3386 5.66933 84.7093 5.424 83.8986 5.424C83.152 5.424 82.5546 5.65867 82.1066 6.128C81.6693 6.59733 81.4506 7.216 81.4506 7.984C81.4506 8.76267 81.6693 9.38667 82.1066 9.856C82.544 10.3253 83.1786 10.56 84.0106 10.56Z" fill="#292524"/>
</svg>
