<svg width="44" height="34" viewBox="0 0 44 34" fill="none" xmlns="http://www.w3.org/2000/svg">
<path d="M32.9552 14.0221C32.97 14.022 32.985 14.022 33 14.022C37.9706 14.022 42 18.0588 42 23.0386C42 27.6796 38.5 31.5016 34 32M32.9552 14.0221C32.9848 13.6921 33 13.3579 33 13.0202C33 6.9339 28.0752 2 22 2C16.2465 2 11.5247 6.42534 11.0408 12.0638M32.9552 14.0221C32.7506 16.2952 31.8572 18.3692 30.4856 20.033M11.0408 12.0638C5.96796 12.5475 2 16.8278 2 22.0366C2 26.8834 5.43552 30.9264 10 31.8546M11.0408 12.0638C11.3565 12.0337 11.6765 12.0183 12 12.0183C14.2516 12.0183 16.3295 12.7639 18.001 14.022" stroke="#D6D3D1" stroke-width="3" stroke-linecap="round" stroke-linejoin="round"/>
</svg>
